<svg width="271" height="261" viewBox="0 0 271 261" fill="none" xmlns="http://www.w3.org/2000/svg">
<path d="M15.3109 118.167C25.8982 98.4194 44.0045 83.0615 64.7887 74.6974C88.8767 65.0003 115.481 65.0189 141.454 65.0003C165.089 64.9817 188.725 65.9303 212.286 67.84C218.534 68.3484 225.068 69.018 230.299 72.4777C235.525 75.9375 238.847 83.1297 235.934 88.6851C233.672 92.9943 228.564 94.9597 223.76 95.7596C218.956 96.5594 213.923 96.609 209.503 98.6489C205.083 100.689 201.426 105.63 202.932 110.262C203.912 113.281 206.825 115.327 209.856 116.257C212.894 117.188 216.117 117.212 219.278 117.498C238.228 119.196 255.962 131.082 264.733 147.972C273.504 164.861 273.027 186.208 263.512 202.695C253.997 219.175 235.748 230.261 216.743 231.11L54.4803 229.498C33.2126 222.461 16.1477 204.511 9.08118 183.245C2.01471 161.984 4.72971 137.909 15.317 118.161L15.3109 118.167Z" fill="#FFFDFE"/>
<path d="M257.075 84.5291V86.8045" stroke="#F8D4FF" stroke-width="1.63" stroke-miterlimit="10"/>
<path d="M257.075 89.5636V91.8391" stroke="#F8D4FF" stroke-width="1.63" stroke-miterlimit="10"/>
<path d="M260.725 88.1872H258.457" stroke="#F8D4FF" stroke-width="1.63" stroke-miterlimit="10"/>
<path d="M255.698 88.1872H253.423" stroke="#F8D4FF" stroke-width="1.63" stroke-miterlimit="10"/>
<path d="M220.143 50.0001V52.2755" stroke="#F8D4FF" stroke-width="1.63" stroke-miterlimit="10"/>
<path d="M220.143 55.0347V57.3101" stroke="#F8D4FF" stroke-width="1.63" stroke-miterlimit="10"/>
<path d="M223.794 53.6582H221.525" stroke="#F8D4FF" stroke-width="1.63" stroke-miterlimit="10"/>
<path d="M218.767 53.6582H216.492" stroke="#F8D4FF" stroke-width="1.63" stroke-miterlimit="10"/>
<path d="M127.658 109.699V111.968" stroke="#F8D4FF" stroke-width="1.63" stroke-miterlimit="10"/>
<path d="M127.658 114.727V117.002" stroke="#F8D4FF" stroke-width="1.63" stroke-miterlimit="10"/>
<path d="M131.309 113.35H129.034" stroke="#F8D4FF" stroke-width="1.63" stroke-miterlimit="10"/>
<path d="M126.275 113.35H124" stroke="#F8D4FF" stroke-width="1.63" stroke-miterlimit="10"/>
<path d="M158.82 133.226V135.495" stroke="#F8D4FF" stroke-width="1.63" stroke-miterlimit="10"/>
<path d="M158.82 138.254V140.529" stroke="#F8D4FF" stroke-width="1.63" stroke-miterlimit="10"/>
<path d="M162.471 136.878H160.196" stroke="#F8D4FF" stroke-width="1.63" stroke-miterlimit="10"/>
<path d="M157.437 136.878H155.168" stroke="#F8D4FF" stroke-width="1.63" stroke-miterlimit="10"/>
<path d="M93.1325 69.1048L101.599 49.0813V26.0331C101.599 21.5977 105.192 18.0001 109.622 18.0001H157.978C162.408 18.0001 166 21.5977 166 26.0331V51.9547C166 56.3901 162.408 59.9877 157.978 59.9877H111.333L95.5671 71.074C94.2292 72.016 92.499 70.6148 93.1372 69.1048H93.1325Z" fill="#F8D4FF"/>
<path d="M144.496 39.7724C144.07 37.1507 145.847 34.6794 148.465 34.2524C151.083 33.8255 153.551 35.6046 153.977 38.2262C154.404 40.8478 152.627 43.3192 150.009 43.7462C147.391 44.1731 144.923 42.394 144.496 39.7724Z" fill="#FFFDFE"/>
<path d="M129.125 40.0987C128.513 37.5142 130.11 34.9223 132.691 34.3094C135.272 33.6965 137.86 35.2949 138.472 37.8794C139.084 40.4639 137.488 43.0558 134.907 43.6687C132.326 44.2815 129.738 42.6832 129.125 40.0987Z" fill="#FFFDFE"/>
<path d="M115.367 42.7547C113.287 41.1055 112.937 38.0807 114.584 35.9985C116.231 33.9163 119.252 33.5653 121.331 35.2144C123.41 36.8635 123.761 39.8884 122.114 41.9706C120.467 44.0528 117.446 44.4038 115.367 42.7547Z" fill="#FFFDFE"/>
<path d="M96.3878 154.95C95.1394 159.987 90.2889 169.068 83.5788 175.315C86.1408 171.205 90.7247 160.604 85.0197 151.449C79.3696 142.386 55.3483 157.085 54.8571 157.384C57.0717 153.927 60.7898 150.565 66.3506 147.64C83.5951 138.56 94.2051 140.412 95.3413 141.312C96.4776 142.211 98.054 148.229 96.3878 154.95Z" fill="#AC08A1"/>
<path d="M58.1016 177.371C52.2722 172.318 50.2405 164.61 54.8977 157.339C55.3844 157.041 79.4058 142.342 85.0603 151.404C90.7698 160.557 86.1827 171.164 83.6195 175.269C76.5046 181.898 67.2993 185.338 58.1016 177.371Z" fill="#F79DFF"/>
<path d="M31.6944 236.01L29.6834 232.828L60.1601 209.865L59.7004 214.962L31.6944 236.01Z" fill="#434343"/>
<path d="M36.8575 239.635L36.7152 239.766C35.5378 240.844 33.7649 240.713 32.7609 239.473L25.821 230.902C25.2326 230.175 25.3149 229.076 26.005 228.443L26.5635 227.932C27.0899 227.449 27.8808 227.508 28.3297 228.062L36.9288 238.683C37.1563 238.964 37.1243 239.391 36.8575 239.635Z" fill="#434343"/>
<path d="M57.2724 196.573L60.7306 195.967L61.9665 209.811C62.1884 212.288 60.9033 214.724 59.1051 215.232L58.7494 215.333L57.2724 197.329L57.2724 196.573Z" fill="#434343"/>
<path d="M48.8954 239.819L52.4649 239.313L46.2175 195.387L49.7594 194.62L56.0436 238.806L61.7576 237.995C62.0989 237.947 62.4151 238.186 62.4639 238.528C62.6978 240.173 61.5594 241.696 59.9222 241.928L49.555 243.398C48.5819 243.536 47.6733 242.871 47.5066 241.898L47.4875 241.763C47.3267 240.831 47.9638 239.952 48.8954 239.819Z" fill="#434343"/>
<path d="M101.878 110.218C101.878 110.218 99.1906 86.1934 72.8355 85.0422C46.4803 83.8911 45.0782 107.94 46.7365 118.427C48.3947 128.913 58.321 147.693 62.271 150.262C62.271 150.262 53.1692 145.002 33.3073 150.262C13.4454 155.522 7.36205 165.41 4.15266 172.275C3.06268 174.605 1.09232 178.859 0.0675507 180.749C-1.12956 182.968 13.7063 196.431 37.2527 197.217C67.665 198.232 82.7058 194.021 88.6914 183.786C94.677 173.552 89.9631 163.192 79.3986 152.831C68.8342 142.47 66.9197 137.224 67.0502 132.367C67.1806 127.51 69.5981 121.496 83.2182 124.051C96.8383 126.606 103.742 122.348 101.883 110.218H101.878Z" fill="#F8D4FF"/>
<path d="M114.111 126.742C114.521 128.525 114.805 130.476 114.912 132.61C115.778 149.822 110.03 150.261 109.057 150.261C108.083 150.261 107.757 141.328 99.8385 134.136C105.717 123.653 114.092 126.732 114.111 126.742Z" fill="#434343"/>
<path d="M86.1713 122.778C86.3902 120.925 87.6851 107.691 101.874 110.218C101.874 110.218 112.578 114.945 114.623 129.737C114.487 128.759 114.315 127.827 114.11 126.934C114.092 126.929 105.716 123.845 99.8379 134.327C91.9193 127.135 85.957 124.631 86.1759 122.778H86.1713Z" fill="#F79DFF"/>
<path d="M14.6424 139.378C19.7802 138.602 30.0381 139.601 38.385 143.401C33.6022 142.611 22.0402 142.439 15.7542 151.206C9.53179 159.887 32.3239 176.423 32.789 176.761C28.743 176.041 24.2095 173.898 19.3751 169.887C4.37444 157.453 2.02778 146.956 2.42499 145.563C2.82219 144.171 7.78645 140.413 14.6424 139.378Z" fill="#AC08A1"/>
<path d="M50.038 166.119C47.594 173.431 41.2402 178.255 32.7312 176.741C32.2691 176.406 9.47694 159.871 15.6965 151.186C21.9795 142.415 33.5481 142.588 38.3273 143.381C47.1826 147.408 53.8887 154.584 50.038 166.119Z" fill="#F79DFF"/>
<path d="M75.5229 116.742C70.5836 116.742 66.5794 113.679 66.5794 109.9C66.5794 106.122 70.5836 103.059 75.5229 103.059C80.4622 103.059 84.4663 106.122 84.4663 109.9C84.4663 113.679 80.4622 116.742 75.5229 116.742Z" fill="#FFFDFE"/>
<path d="M81.5951 102.503C81.5951 101.454 82.4418 100.603 83.4863 100.603C84.5307 100.603 85.3774 101.454 85.3774 102.503V106.663C85.3774 107.712 84.5307 108.563 83.4863 108.563C82.4418 108.563 81.5951 107.712 81.5951 106.663V102.503Z" fill="#434343"/>
<path d="M83.8496 103.406C83.4637 103.406 83.1509 103.092 83.1509 102.705C83.1509 102.317 83.4637 102.003 83.8496 102.003C84.2355 102.003 84.5483 102.317 84.5483 102.705C84.5483 103.092 84.2355 103.406 83.8496 103.406Z" fill="#FFFDFE"/>
<path d="M86.6674 99.8032C86.6674 98.7539 87.5141 97.9033 88.5585 97.9033C89.603 97.9033 90.4497 98.7539 90.4497 99.8032V103.963C90.4497 105.013 89.603 105.863 88.5585 105.863C87.5141 105.863 86.6674 105.013 86.6674 103.963V99.8032Z" fill="#434343"/>
<path d="M88.9219 100.604C88.536 100.604 88.2232 100.289 88.2232 99.9016C88.2232 99.514 88.536 99.1997 88.9219 99.1997C89.3078 99.1997 89.6206 99.514 89.6206 99.9016C89.6206 100.289 89.3078 100.604 88.9219 100.604Z" fill="#FFFDFE"/>
<path d="M193.5 159C218.077 159 238 178.871 238 203.383C238 213.209 234.765 222.274 229.348 229.599C231.638 240.005 238 261 236.037 261C234.074 261 216.878 250.702 207.316 245.553C202.989 246.931 198.336 247.729 193.5 247.729C168.924 247.729 149 227.858 149 203.346C149 178.834 168.924 159 193.5 159Z" fill="#AC08A1"/>
<path d="M193.871 224.234C193.634 224.234 193.419 224.234 193.183 224.191C189.526 223.847 186.643 220.577 186.643 216.748V214.941C186.643 212.984 185.783 211.069 184.256 209.564C181.545 206.918 180.083 203.39 180.104 199.604C180.169 192.291 186.149 186.16 193.441 185.945C197.162 185.816 200.754 187.214 203.465 189.817C206.175 192.441 207.659 195.947 207.659 199.712C207.659 203.476 206.197 206.918 203.551 209.521C201.981 211.069 201.12 213.048 201.12 215.113V216.985C201.12 219.028 200.26 220.964 198.754 222.341C197.42 223.546 195.678 224.212 193.871 224.212V224.234ZM193.893 188.892C193.785 188.892 193.656 188.892 193.548 188.892C187.805 189.064 183.094 193.882 183.051 199.647C183.03 202.616 184.191 205.412 186.321 207.477C188.429 209.542 189.59 212.209 189.59 214.941V216.748C189.59 219.071 191.29 221.072 193.462 221.287C194.688 221.394 195.872 221.007 196.775 220.19C197.678 219.372 198.195 218.211 198.195 217.006V215.135C198.195 212.295 199.378 209.564 201.507 207.456C203.594 205.391 204.734 202.659 204.734 199.733C204.734 196.808 203.572 194.011 201.443 191.946C199.399 189.967 196.732 188.892 193.893 188.892Z" fill="#FDEFFF"/>
<path d="M200.087 215.802H188.084C187.267 215.802 186.622 215.157 186.622 214.339C186.622 213.522 187.267 212.877 188.084 212.877H200.087C200.905 212.877 201.55 213.522 201.55 214.339C201.55 215.157 200.905 215.802 200.087 215.802Z" fill="#FDEFFF"/>
<path d="M199.808 219.072H188.515C187.698 219.072 187.052 218.426 187.052 217.609C187.052 216.792 187.698 216.146 188.515 216.146H199.808C200.625 216.146 201.271 216.792 201.271 217.609C201.271 218.426 200.625 219.072 199.808 219.072Z" fill="#FDEFFF"/>
<path d="M192.042 214.726C191.698 214.726 191.397 214.49 191.332 214.145L188.364 199.368C188.299 199.045 188.45 198.722 188.751 198.572C189.052 198.421 189.396 198.486 189.611 198.722C189.655 198.765 190.579 199.755 191.827 199.54C192.644 199.411 193.139 198.873 193.311 198.658C193.569 198.335 194.021 198.292 194.344 198.55C194.666 198.808 194.71 199.26 194.451 199.583C194.172 199.927 193.354 200.787 192.042 200.981C191.311 201.11 190.666 200.981 190.128 200.766L192.774 213.844C192.86 214.232 192.601 214.619 192.193 214.705C192.15 214.705 192.085 214.705 192.042 214.705V214.726Z" fill="#FDEFFF"/>
<path d="M195.721 214.726C195.721 214.726 195.613 214.726 195.57 214.726C195.183 214.64 194.925 214.253 194.99 213.866L197.635 200.787C197.098 200.981 196.452 201.11 195.721 200.981C194.409 200.766 193.613 199.927 193.312 199.561C193.054 199.239 193.097 198.787 193.419 198.529C193.72 198.271 194.194 198.314 194.452 198.636C194.624 198.851 195.14 199.389 195.936 199.518C197.205 199.733 198.109 198.765 198.152 198.722C198.367 198.486 198.732 198.421 199.034 198.572C199.335 198.722 199.485 199.045 199.421 199.368L196.452 214.145C196.388 214.49 196.087 214.726 195.742 214.726H195.721Z" fill="#FDEFFF"/>
<path d="M177.414 201.341C177.282 201.341 169.626 199.681 169.626 199.681C169.23 199.602 168.944 199.127 169.01 198.653C169.076 198.152 169.472 197.835 169.89 197.914L177.546 199.549C177.942 199.628 178.228 200.102 178.162 200.577C178.096 200.999 177.788 201.315 177.436 201.315L177.414 201.341Z" fill="#FDEFFF"/>
<path d="M182.031 191.024C181.835 191.024 181.639 190.927 181.486 190.757L176.08 184.391C175.797 184.051 175.819 183.541 176.102 183.225C176.407 182.909 176.865 182.933 177.148 183.249L182.555 189.615C182.838 189.955 182.816 190.466 182.533 190.781C182.38 190.927 182.206 191 182.031 191V191.024Z" fill="#FDEFFF"/>
<path d="M206.344 189.86C206.189 189.86 206.034 189.806 205.899 189.697C205.628 189.462 205.609 189.083 205.86 188.83L210.271 184.348C210.522 184.095 210.928 184.077 211.199 184.312C211.47 184.547 211.489 184.926 211.238 185.179L206.827 189.679C206.692 189.806 206.518 189.878 206.344 189.878V189.86Z" fill="#FDEFFF"/>
<path d="M208.743 203.634C208.379 203.634 208.062 203.432 207.994 203.138C207.903 202.807 208.175 202.476 208.606 202.403L215.075 201.356C215.506 201.282 215.892 201.503 215.983 201.852C216.074 202.182 215.801 202.513 215.37 202.587L208.901 203.634C208.901 203.634 208.788 203.634 208.743 203.634Z" fill="#FDEFFF"/>
<path d="M107.458 0H72.0978C68.1781 0 65.0005 3.18179 65.0005 7.10673V24.8933C65.0005 28.8182 68.1781 32 72.0978 32H107.458C111.378 32 114.556 28.8182 114.556 24.8933V7.10673C114.556 3.18179 111.378 0 107.458 0Z" fill="#AC08A1"/>
<path d="M87.1284 10.1949L95.744 15.2129C96.7151 15.7784 96.673 17.1948 95.6747 17.7033L87.059 22.0887C86.1177 22.5675 85.0005 21.8829 85.0005 20.8237V11.4202C85.0005 10.3263 86.1846 9.64423 87.1284 10.1949Z" fill="white"/>
</svg>
