<svg width="261" height="264" viewBox="0 0 261 264" fill="none" xmlns="http://www.w3.org/2000/svg">
<path d="M167.965 167.859C198.886 136.957 198.886 86.8553 167.965 55.9532C137.043 25.0512 86.9097 25.0512 55.9882 55.9532C25.0668 86.8553 25.0668 136.957 55.9882 167.859C86.9097 198.761 137.043 198.761 167.965 167.859Z" fill="white"/>
<path d="M9.3134 113.137C8.98987 85.1266 20.0359 57.0859 42.1712 36.5963C64.3041 16.1093 93.1241 7.24191 121.045 9.70381L121.791 9.01387C119.848 8.83057 117.894 8.69563 115.927 8.61925C88.322 7.56524 61.9553 17.3161 41.6898 36.0795C21.4217 54.8404 9.6777 80.3657 8.62303 107.956C8.5466 109.921 8.53386 111.879 8.56698 113.829L9.3134 113.137Z" fill="white"/>
<path d="M200.642 60.0748L201.195 59.563C197.445 53.2084 192.989 47.2051 187.851 41.6652C180.545 33.7805 172.207 27.1942 163.125 22.0209L162.546 22.5556C171.552 27.6372 179.933 34.1701 187.329 42.149C192.51 47.7372 196.94 53.7583 200.642 60.0773V60.0748Z" fill="white"/>
<path d="M213.851 99.1164C217.792 130.81 206.962 163.9 181.78 187.213C140.23 225.679 75.1107 223.192 36.6203 181.665C29.2248 173.686 23.3477 164.837 18.966 155.475L18.3877 156.01C22.8586 165.453 28.7917 174.264 36.1006 182.146C54.8758 202.402 80.4171 214.138 108.025 215.192C135.632 216.249 161.996 206.498 182.264 187.735C202.532 168.974 214.274 143.446 215.331 115.856C215.555 109.99 215.285 104.18 214.551 98.4748L213.856 99.1189L213.851 99.1164Z" fill="white"/>
<path d="M37.3157 71.007C40.4542 65.2837 44.3009 59.8355 48.8712 54.792C79.7394 20.7302 132.127 17.4765 166.964 46.9557L167.42 46.4516C150.746 32.3243 129.668 25.1626 107.732 26.2497C84.837 27.3827 63.7538 37.3576 48.3668 54.3388C43.7099 59.4765 39.7485 65.0724 36.5132 71.0095H37.3157V71.007Z" fill="white"/>
<path d="M27.0186 107.001H26.2925C26.1244 110.028 26.1091 113.078 26.2619 116.146C27.3472 138.069 36.5616 158.324 52.2746 173.508L52.7306 173.004C34.3427 155.213 25.6582 130.918 27.016 107.001H27.0186Z" fill="white"/>
<path d="M187.451 71.007C186.587 69.4184 185.673 67.8577 184.707 66.3251L184.208 66.875C185.054 68.2345 185.856 69.6119 186.62 71.007H187.448H187.451Z" fill="white"/>
<path d="M197.648 107.001H196.922C198.196 128.985 191.005 151.445 175.08 169.02C148.986 197.814 107.517 204.584 74.2723 188.188L73.7729 188.74C86.7806 195.225 101.301 198.303 116.22 197.565C139.114 196.432 160.195 186.457 175.584 169.478C190.969 152.499 198.82 130.546 197.687 107.666C197.676 107.444 197.661 107.223 197.648 107.001Z" fill="white"/>
<path d="M146.716 197.142C147.967 196.62 149.225 196.062 150.451 195.484L150.16 194.871C148.943 195.444 147.697 195.999 146.454 196.515L146.716 197.142Z" fill="white"/>
<path d="M37.4758 166.662L36.9307 167.067C37.7408 168.154 38.5865 169.236 39.44 170.282L39.9673 169.852C39.119 168.813 38.2808 167.739 37.4758 166.662Z" fill="white"/>
<path d="M32.9308 159.969L32.3525 160.325C33.0607 161.476 33.8072 162.627 34.5663 163.747L35.1293 163.365C34.3753 162.253 33.6365 161.112 32.9308 159.969Z" fill="white"/>
<path d="M23.0775 137.817L22.4253 138.008C22.8074 139.311 23.2227 140.62 23.6608 141.9L24.3028 141.682C23.8672 140.411 23.457 139.11 23.0775 137.817Z" fill="white"/>
<path d="M48.2567 178.73L47.7905 179.224C48.7764 180.148 49.8005 181.067 50.8297 181.95L51.273 181.436C50.2514 180.558 49.235 179.646 48.2567 178.727V178.73Z" fill="white"/>
<path d="M28.9951 152.894L28.3862 153.197C28.9925 154.408 29.6345 155.623 30.2918 156.809L30.8853 156.478C30.2306 155.302 29.5938 154.095 28.9951 152.894Z" fill="white"/>
<path d="M25.6987 145.488L25.0669 145.737C25.5611 147 26.091 148.265 26.6438 149.503L27.2654 149.228C26.7202 147.998 26.1929 146.74 25.7012 145.488H25.6987Z" fill="white"/>
<path d="M139.043 199.947C140.337 199.537 141.636 199.095 142.91 198.629L142.676 197.992C141.412 198.455 140.12 198.896 138.836 199.301L139.043 199.947Z" fill="white"/>
<path d="M123.019 202.809L123.108 203.483C124.453 203.308 125.811 203.099 127.146 202.862L127.028 202.193C125.704 202.427 124.353 202.633 123.019 202.809Z" fill="white"/>
<path d="M131.008 201.401L131.153 202.063C132.478 201.77 133.813 201.442 135.122 201.093L134.946 200.439C133.647 200.785 132.322 201.111 131.008 201.401Z" fill="white"/>
<path d="M54.4067 184.012L53.9863 184.547C55.0537 185.385 56.1517 186.21 57.2548 186.996L57.6497 186.444C56.5568 185.662 55.4664 184.842 54.4067 184.01V184.012Z" fill="white"/>
<path d="M61.0023 188.733L60.6304 189.3C61.7666 190.041 62.9359 190.767 64.1026 191.457L64.4491 190.871C63.29 190.186 62.1309 189.468 61.0023 188.73V188.733Z" fill="white"/>
<path d="M77.8537 197.384C77.0003 197.053 76.1495 196.711 75.3113 196.355L75.0464 196.981C76.0043 197.389 76.98 197.776 77.9531 198.15L77.8537 197.384Z" fill="white"/>
<path d="M67.9875 192.862L67.6665 193.46C68.8638 194.099 70.0917 194.718 71.3171 195.303L71.6101 194.69C70.3949 194.109 69.1746 193.493 67.9875 192.862Z" fill="white"/>
<path d="M42.5988 172.933L42.0918 173.386C42.9936 174.394 43.9311 175.4 44.8788 176.367L45.3654 175.894C44.4253 174.931 43.4955 173.936 42.5988 172.933Z" fill="white"/>
<path d="M40.1938 53.7937L39.669 53.3635C38.808 54.4124 37.9571 55.4944 37.147 56.5764L37.6921 56.9838C38.4972 55.9094 39.3404 54.8375 40.1938 53.7963V53.7937Z" fill="white"/>
<path d="M51.0872 41.7186C50.0581 42.597 49.034 43.511 48.043 44.4377L48.5066 44.9341C49.49 44.015 50.5064 43.1062 51.528 42.2354L51.0872 41.7186Z" fill="white"/>
<path d="M45.1237 47.2892C44.1761 48.2566 43.236 49.2572 42.3291 50.2653L42.8335 50.7185C43.7328 49.7154 44.6652 48.7225 45.6052 47.7627L45.1212 47.2866L45.1237 47.2892Z" fill="white"/>
<path d="M56.9363 37.1207C56.0294 37.7776 55.1275 38.4497 54.2461 39.1371L54.6639 39.6717C55.4409 39.0658 56.2357 38.4726 57.0356 37.8896L56.9363 37.1233V37.1207Z" fill="white"/>
<path d="M94.9911 21.728L94.8714 21.0585C93.6664 21.2723 92.4538 21.5142 91.2539 21.7764L91.3431 22.4511C92.5531 22.1863 93.7759 21.9419 94.9911 21.7255V21.728Z" fill="white"/>
<path d="M114.976 203.512L115.063 204.186C116.387 204.128 117.727 204.039 119.045 203.924L118.986 203.247C117.659 203.364 116.306 203.45 114.974 203.509L114.976 203.512Z" fill="white"/>
<path d="M34.7678 59.8964C34.0035 61.0166 33.252 62.1674 32.5361 63.3181L33.1144 63.6771C33.8252 62.534 34.569 61.3909 35.3282 60.2783L34.7678 59.8964Z" fill="white"/>
<path d="M30.4574 66.8391C29.7951 68.0204 29.148 69.2322 28.5366 70.4466L29.1429 70.7521C29.7518 69.5479 30.3912 68.3437 31.051 67.1726L30.46 66.8391H30.4574Z" fill="white"/>
<path d="M21.4112 89.574C21.0826 90.8903 20.7769 92.2345 20.5068 93.566L21.1743 93.701C21.4443 92.3796 21.7449 91.0456 22.0736 89.7395L21.4138 89.574H21.4112Z" fill="white"/>
<path d="M26.7735 74.1357C26.2156 75.373 25.6806 76.6409 25.1787 77.9011L25.8105 78.1531C26.3098 76.9005 26.8422 75.6454 27.3951 74.4157L26.776 74.1357H26.7735Z" fill="white"/>
<path d="M23.7496 81.7327C23.3038 83.0159 22.8809 84.3245 22.4937 85.6254L23.1458 85.8189C23.5305 84.5281 23.9508 83.2272 24.3916 81.9542L23.7496 81.7327Z" fill="white"/>
<path d="M199.594 138.372C199.984 137.068 200.349 135.742 200.682 134.426L200.022 134.26C199.694 135.566 199.329 136.882 198.945 138.178L199.597 138.372H199.594Z" fill="white"/>
<path d="M194.894 74.7672L195.516 74.4922C194.966 73.2549 194.382 72.0099 193.776 70.7955L193.167 71.0985C193.768 72.3053 194.349 73.5375 194.892 74.7672H194.894Z" fill="white"/>
<path d="M182.213 54.1275L182.74 53.6972C181.884 52.6457 180.993 51.6019 180.093 50.5912L179.586 51.0444C180.481 52.0475 181.362 53.0836 182.213 54.1275Z" fill="white"/>
<path d="M154.108 193.661C155.303 193.033 156.503 192.366 157.67 191.683L157.326 191.098C156.167 191.775 154.977 192.437 153.79 193.061L154.106 193.661H154.108Z" fill="white"/>
<path d="M187.045 60.6194L187.608 60.2401C186.849 59.1199 186.054 58.0022 185.249 56.9151L184.704 57.3199C185.507 58.3968 186.294 59.5068 187.048 60.6194H187.045Z" fill="white"/>
<path d="M111.333 20.3023V19.6225C109.98 19.62 108.605 19.648 107.25 19.7066L107.28 20.3838C108.625 20.3278 109.991 20.2997 111.336 20.3023H111.333Z" fill="white"/>
<path d="M99.0008 21.1069L99.1969 21.0815C100.537 20.9058 101.892 20.7607 103.23 20.6436L103.171 19.9664C101.823 20.0835 100.458 20.2311 99.1078 20.4068L98.9116 20.4323L99.0008 21.1069Z" fill="white"/>
<path d="M119.432 20.6741L119.493 19.9969C118.143 19.8747 116.77 19.7805 115.417 19.7194L115.386 20.3966C116.731 20.4577 118.092 20.5519 119.432 20.6741Z" fill="white"/>
<path d="M143.124 26.0791L143.363 25.4426C142.087 24.9665 140.785 24.5108 139.498 24.0958L139.29 24.7425C140.568 25.1575 141.857 25.6081 143.126 26.0816L143.124 26.0791Z" fill="white"/>
<path d="M135.395 23.5737L135.575 22.9194C134.269 22.5605 132.934 22.2244 131.604 21.9189L131.454 22.5808C132.771 22.8812 134.098 23.2148 135.395 23.5737Z" fill="white"/>
<path d="M127.469 21.7664L127.591 21.0993C126.254 20.8575 124.896 20.6411 123.554 20.4578L123.462 21.1299C124.794 21.3106 126.142 21.5245 127.467 21.7638L127.469 21.7664Z" fill="white"/>
<path d="M191.282 67.5112L191.875 67.1828C191.218 65.9989 190.528 64.8151 189.82 63.6643L189.239 64.0207C189.939 65.1613 190.627 66.3375 191.279 67.5137L191.282 67.5112Z" fill="white"/>
<path d="M179.724 173.712C180.628 172.703 181.525 171.662 182.389 170.616L181.864 170.183C181.011 171.222 180.119 172.255 179.22 173.256L179.727 173.709L179.724 173.712Z" fill="white"/>
<path d="M184.913 167.408C185.726 166.326 186.528 165.211 187.295 164.09L186.735 163.706C185.973 164.819 185.178 165.926 184.368 167L184.911 167.408H184.913Z" fill="white"/>
<path d="M189.529 160.669C190.248 159.518 190.946 158.334 191.613 157.153L191.02 156.819C190.36 157.993 189.664 159.167 188.954 160.31L189.529 160.669Z" fill="white"/>
<path d="M161.142 189.55C162.276 188.817 163.415 188.048 164.518 187.264L164.125 186.709C163.028 187.488 161.899 188.251 160.773 188.98L161.142 189.55Z" fill="white"/>
<path d="M193.537 153.545C194.151 152.336 194.742 151.094 195.302 149.859L194.68 149.579C194.128 150.806 193.537 152.038 192.928 153.24L193.534 153.545H193.537Z" fill="white"/>
<path d="M167.791 184.827C168.859 183.997 169.921 183.129 170.955 182.248L170.515 181.731C169.488 182.607 168.433 183.468 167.374 184.29L167.791 184.825V184.827Z" fill="white"/>
<path d="M174 179.534C174.991 178.61 175.974 177.65 176.924 176.685L176.438 176.209C175.498 177.166 174.519 178.119 173.536 179.035L174 179.534Z" fill="white"/>
<path d="M201.694 98.047L202.366 97.9426C202.16 96.5958 201.923 95.2439 201.661 93.92L200.993 94.0524C201.253 95.3661 201.49 96.7078 201.694 98.0444V98.047Z" fill="white"/>
<path d="M196.902 146.096C197.406 144.836 197.888 143.548 198.334 142.265L197.692 142.041C197.248 143.313 196.769 144.594 196.27 145.844L196.902 146.096Z" fill="white"/>
<path d="M197.847 82.3158L198.492 82.0969C198.053 80.8137 197.582 79.5229 197.088 78.2627L196.456 78.5096C196.945 79.7622 197.414 81.0428 197.847 82.3158Z" fill="white"/>
<path d="M200.119 90.096L200.779 89.9356C200.458 88.6219 200.104 87.293 199.722 85.992L199.07 86.1829C199.447 87.4763 199.801 88.7925 200.119 90.0986V90.096Z" fill="white"/>
<path d="M203.25 106.061C203.164 104.715 203.044 103.348 202.896 101.993L202.221 102.067C202.369 103.411 202.486 104.771 202.573 106.105L203.25 106.061Z" fill="white"/>
<path d="M201.589 130.436C201.862 129.107 202.106 127.755 202.318 126.416L201.648 126.309C201.436 127.638 201.194 128.98 200.924 130.299L201.589 130.434V130.436Z" fill="white"/>
<path d="M202.865 122.371C203.018 121.024 203.141 119.657 203.235 118.302L202.557 118.257C202.465 119.598 202.346 120.955 202.193 122.294L202.868 122.371H202.865Z" fill="white"/>
<path d="M203.421 114.224C203.451 112.869 203.454 111.495 203.426 110.14L202.746 110.155C202.774 111.5 202.771 112.862 202.741 114.209L203.421 114.224Z" fill="white"/>
<path d="M140.459 159.981C137.079 154.212 127.605 152.965 132.608 149.311C132.465 149.413 134.521 147.611 135.02 147.048C135.232 146.809 135.385 146.646 135.51 146.516C135.581 146.379 135.668 146.218 135.792 145.997C136.006 145.628 136.804 143.583 136.559 144.439C136.771 143.772 136.969 143.102 137.104 142.412C137.165 142.066 137.211 141.819 137.244 141.661C137.28 141.261 137.323 140.867 137.349 140.469C137.407 139.395 137.458 138.326 137.469 137.249C137.497 134.886 137.476 132.524 137.474 130.161C137.466 127.04 138.498 124.591 140.115 122.796C137.193 120.912 134.024 120.662 132.881 122.281L132.475 122.857L130.692 125.382L130.588 125.53L129.253 124.591L131.021 122.088L132.814 119.545L134.259 117.498C135.459 115.8 133.976 112.691 130.955 110.56C127.928 108.427 124.504 108.075 123.304 109.773L121.857 111.82L120.064 114.364L118.299 116.866L116.966 115.927L125.029 104.503L125.019 104.496C125.083 104.404 125.154 104.328 125.22 104.236L135.823 89.2125C137.762 86.4629 136.88 82.5091 133.859 80.3782C130.832 78.2447 126.807 78.7412 124.869 81.4908L114.266 96.5117C114.2 96.6059 114.151 96.6975 114.093 96.7917L114.075 96.7815L90.7293 129.858L84.5669 141.926L82.8371 108.533C83.7721 104.598 84.3529 100.781 81.0972 98.4873C77.8466 96.196 73.3451 96.9699 71.0498 100.224L69.1417 128.191C69.1417 128.191 65.9166 135.828 68.1558 147.771L73.4088 158.332C47.6967 211.414 57.5658 198.03 54.04 202.928L101.633 217.058C102.894 212.017 118.441 178.625 118.441 178.625C120.242 178.052 125.312 176.525 127.867 175.181C129.087 174.539 131.095 173.256 133.528 170.259C137.94 164.225 141.568 161.881 140.462 159.989L140.459 159.981Z" fill="#F8D4FF"/>
<path d="M155.709 70.7114C152.682 68.5779 148.657 69.0744 146.719 71.8214L136.116 86.8449C136.05 86.9365 135.999 87.0282 135.943 87.1249L135.925 87.1122L112.577 120.189L112.478 120.117C112.5 120.25 112.518 120.382 112.541 120.512C113.328 125.398 113.683 131.075 115.402 135.803C115.407 135.808 115.412 135.816 115.417 135.821C115.44 135.831 115.461 135.841 115.484 135.851C115.514 135.645 115.792 135.895 115.945 136.096C115.975 136.111 116.008 136.129 116.036 136.144C116.128 136.172 116.202 136.195 116.314 136.225C116.959 136.434 117.611 136.625 118.268 136.796C118.316 136.806 118.362 136.816 118.411 136.829C118.413 136.824 118.421 136.816 118.421 136.811C119.139 135.831 119.855 134.846 120.553 133.85C124.897 127.666 128.914 121.268 132.725 114.743C134.61 111.512 137.481 109.814 140.508 109.364C140.408 108.493 140.401 107.602 140.49 106.716L140.151 107.194L138.819 106.255L142.126 101.57C142.467 100.98 142.852 100.43 143.28 99.9334L146.882 94.8314L146.872 94.8238C146.935 94.7347 147.007 94.6557 147.073 94.5641L157.676 79.5406C159.614 76.791 158.73 72.8347 155.709 70.7063V70.7114Z" fill="#F8D4FF"/>
<path d="M92.3696 252.307L117.702 195.164L60.3983 167.263L22.1729 252.307H92.3696Z" fill="white"/>
<path d="M102.272 198.636C103.673 199.4 105.434 198.888 106.198 197.485C106.962 196.083 106.445 194.329 105.044 193.567C103.648 192.801 101.882 193.313 101.121 194.716C100.357 196.116 100.874 197.87 102.275 198.636H102.272Z" fill="#AC08A1"/>
<path d="M90.0209 263.985L113.955 210.304L50.7179 179.391L12.6045 263.985H90.0209Z" fill="#AC08A1"/>
<path d="M104.46 166.036C104.682 165.142 104.876 164.246 105.028 163.355C104.868 162.874 105.36 153.337 94.2244 145.538C89.0708 141.931 82.9924 142.738 80.208 142.993V166.036H104.46Z" fill="#F8D4FF"/>
<path d="M76.2925 66.8746C76.2925 63.0252 79.4208 59.9014 83.2752 59.9014H141.336C145.19 59.9014 148.316 63.0252 148.316 66.8746V162.639C148.316 166.491 145.19 169.613 141.336 169.613H83.2752C79.4183 169.613 76.2925 166.491 76.2925 162.639V66.8746Z" fill="#AC08A1"/>
<path d="M143.256 64.4185H81.3906V162.206H143.256V64.4185Z" fill="white"/>
<path d="M174.507 138.967C171.355 140.905 169.684 143.904 170.772 145.671L171.325 146.572L169.934 147.428L169.837 147.275L168.219 144.642L167.85 144.041C166.762 142.277 163.328 142.412 160.177 144.347C157.023 146.284 155.352 149.289 156.437 151.053L156.806 151.654L158.424 154.284L158.518 154.439L157.13 155.292L155.528 152.685L153.9 150.037L152.588 147.904C151.5 146.134 148.061 146.272 144.912 148.204C141.761 150.141 140.087 153.146 141.178 154.912L142.487 157.046L144.117 159.696L145.72 162.303L144.331 163.156L137.012 151.254L137.002 151.262C136.944 151.165 136.9 151.071 136.842 150.974L128.193 136.969C126.432 134.105 122.448 133.359 119.302 135.291C116.151 137.226 115.022 141.116 116.782 143.978L125.431 157.983C125.49 158.08 125.554 158.164 125.62 158.253L125.602 158.263L146.79 192.714L144.953 193.842L139.382 184.781C137.298 181.393 132.86 180.336 129.469 182.419C126.083 184.496 125.021 188.934 127.105 192.322L139.973 210.47C139.973 210.47 143.677 214.174 146.308 214.255L166.125 219.821C168.377 223.543 171.287 228.38 174.397 233.546L214.184 211.702C207.11 200.202 200.927 190.064 200.927 190.064C201.11 188.185 201.704 179.366 201.475 176.489C201.192 172.93 195.205 160.46 188.645 149.548L186.862 146.259L185.025 143.273L184.498 142.417L183.224 140.342L182.187 138.657C181.1 136.892 177.666 137.027 174.512 138.965L174.507 138.967Z" fill="#F8D4FF"/>
<path d="M249.465 252.306L216.943 199.428L164.368 231.723L177.024 252.306H249.465Z" fill="white"/>
<path d="M212.19 214.237C213.555 213.499 214.072 211.793 213.334 210.429C212.595 209.061 210.888 208.552 209.523 209.291C208.155 210.024 207.635 211.732 208.376 213.099C209.112 214.466 210.822 214.976 212.187 214.24L212.19 214.237Z" fill="#AC08A1"/>
<path d="M261 263.985L226.499 209.986L168.477 245.623L180.751 263.985H261Z" fill="#AC08A1"/>
<path d="M142.868 134.519H83.3862V96.3492H142.868V134.519Z" fill="white"/>
<path d="M135.665 98.6433H90.5308C87.7693 98.6433 85.5308 100.882 85.5308 103.643V122.81C85.5308 125.572 87.7693 127.81 90.5308 127.81H135.665C138.426 127.81 140.665 125.572 140.665 122.81V103.643C140.665 100.882 138.426 98.6433 135.665 98.6433Z" fill="#7B7B7B"/>
<path d="M140.665 130.291H85.5308V132.831H140.665V130.291Z" fill="#AC08A1"/>
<path d="M118.905 113.8L114.51 116.337L110.111 118.874V113.8V108.73L114.51 111.266L118.905 113.8Z" fill="white" stroke="white" stroke-miterlimit="10"/>
<path d="M98.2539 131.558C98.2539 132.259 97.6842 132.828 96.9833 132.828H92.652C91.951 132.828 91.3813 132.259 91.3813 131.558C91.3813 130.858 91.951 130.289 92.652 130.289H96.9833C97.6842 130.289 98.2539 130.858 98.2539 131.558Z" fill="white"/>
<path d="M153.605 133.404C154.323 136.111 152.787 138.86 150.176 139.553L138.179 142.73C135.568 143.42 132.87 141.791 132.152 139.087C131.436 136.383 132.97 133.631 135.581 132.939L147.577 129.761C150.186 129.071 152.886 130.703 153.602 133.404H153.605Z" fill="#F8D4FF"/>
<path d="M152.305 105.738C153.75 108.798 152.705 112.322 149.974 113.608L137.43 119.517C134.699 120.802 131.316 119.364 129.872 116.304C128.43 113.246 129.472 109.722 132.2 108.437L144.747 102.528C147.478 101.245 150.861 102.68 152.305 105.741V105.738Z" fill="#F8D4FF"/>
<path d="M153.345 121.548C154.04 124.362 152.476 127.165 149.855 127.811L137.805 130.782C135.181 131.427 132.494 129.675 131.798 126.862C131.105 124.051 132.667 121.245 135.288 120.599L147.338 117.628C149.959 116.981 152.652 118.735 153.342 121.548H153.345Z" fill="#F8D4FF"/>
<path fill-rule="evenodd" clip-rule="evenodd" d="M81.8398 64.8438V64.8973H81.8425V65.4956V66.2186H81.8398V66.3968H81.8425L81.8398 68.1917V68.3546V69.1821V69.401V69.9993V70.0935H142.807V64.8438H81.8398Z" fill="#7B7B7B"/>
<path d="M143.256 70.5187H81.3906V64.4186H143.256V70.5187ZM82.2892 69.6683H142.358V65.2664H82.2919V69.6683H82.2892Z" fill="#7B7B7B"/>
<path d="M142.807 64.8439H135.035V70.0936H142.807V64.8439Z" fill="white"/>
<path d="M143.256 70.5187H134.588V64.4187H143.256V70.5187ZM135.484 69.6684H142.358V65.2665H135.484V69.6684Z" fill="#7B7B7B"/>
<path d="M112.928 66.5725H104.894V68.3445H112.928V66.5725Z" fill="white"/>
<path d="M103.325 66.5725H95.292V68.3445H103.325V66.5725Z" fill="white"/>
<path d="M93.7232 66.5725H85.6924V68.3445H93.7232V66.5725Z" fill="white"/>
<path d="M176.031 61.9327C185.371 59.1342 190.676 49.2845 187.881 39.9327C185.086 30.581 175.25 25.2686 165.91 28.0671C156.571 30.8657 151.266 40.7154 154.06 50.0671C156.855 59.4189 166.692 64.7313 176.031 61.9327Z" fill="#AC08A1"/>
<path d="M153.327 44.9965H188.629" stroke="white" stroke-linecap="round" stroke-linejoin="round"/>
<path d="M156.914 34.3632C166.1 37.0363 175.86 37.0363 185.046 34.3632" stroke="white" stroke-linecap="round" stroke-linejoin="round"/>
<path d="M156.914 55.626C166.1 52.953 175.86 52.953 185.046 55.626" stroke="white" stroke-linecap="round" stroke-linejoin="round"/>
<path d="M170.978 62.6674V27.3221" stroke="white" stroke-linecap="round" stroke-linejoin="round"/>
<path d="M170.978 27.3221C170.978 27.3221 162.324 31.896 162.324 44.9968C162.324 58.962 170.978 62.6716 170.978 62.6716" stroke="white" stroke-linecap="round" stroke-linejoin="round"/>
<path d="M170.978 27.3221C170.978 27.3221 179.632 31.896 179.632 44.9968C179.632 58.962 170.978 62.6716 170.978 62.6716" stroke="white" stroke-linecap="round" stroke-linejoin="round"/>
</svg>
