<svg width="319" height="311" viewBox="0 0 319 311" fill="none" xmlns="http://www.w3.org/2000/svg">
<path d="M90.253 277.182L131.059 256.032C131.659 255.726 132.348 255.662 132.993 255.86L214.676 281.144C216.832 281.814 217.132 284.749 215.148 285.833L170.724 310.141C170.08 310.492 169.314 310.549 168.619 310.3L90.5528 281.865C88.4602 281.106 88.2752 278.215 90.253 277.188V277.182Z" fill="#D844CE"/>
<path d="M92.5435 275.887L133.35 254.737C133.95 254.431 134.639 254.367 135.283 254.565L216.966 279.849C219.123 280.519 219.423 283.454 217.438 284.538L173.014 308.846C172.37 309.197 171.604 309.254 170.909 309.006L92.8434 280.57C90.7507 279.811 90.5657 276.921 92.5435 275.893V275.887Z" fill="#AC08A1"/>
<path d="M95.4146 279.147L138.684 256.932L212.207 280.295L167.215 304.61L95.4146 279.147Z" fill="white"/>
<path d="M196.888 293.311C196.888 293.942 195.899 294.459 194.687 294.459C193.475 294.459 192.486 293.942 192.486 293.311C192.486 292.679 193.475 292.162 194.687 292.162C195.899 292.162 196.888 292.679 196.888 293.311Z" fill="white"/>
<path d="M115.263 266.776C115.263 267.025 114.886 267.229 114.414 267.229C113.942 267.229 113.565 267.025 113.565 266.776C113.565 266.528 113.942 266.323 114.414 266.323C114.886 266.323 115.263 266.528 115.263 266.776Z" fill="white"/>
<path d="M151.648 289.649C164.699 289.649 175.279 284.63 175.279 278.439C175.279 272.248 164.699 267.229 151.648 267.229C138.596 267.229 128.016 272.248 128.016 278.439C128.016 284.63 138.596 289.649 151.648 289.649Z" fill="white"/>
<path d="M158.655 288.525L139.319 281.177C138.393 280.825 138.488 279.485 139.454 279.267L163.431 273.853C164.202 273.678 164.861 274.427 164.591 275.17L159.95 287.932C159.759 288.456 159.177 288.723 158.655 288.525Z" fill="#AC08A1"/>
<path d="M319 0H0V56.4918C0.26158 56.9401 0.54868 57.3666 0.8613 57.7787C3.0305 60.5982 6.22688 62.0514 9.28928 63.4467C22.5916 69.5051 37.189 78.1661 40.7044 93.9121C42.2037 100.621 41.3934 107.67 41.0234 114.581C39.8112 137.188 45.617 163.395 63.6469 173.163C75.3095 179.474 91.2595 178.628 98.1372 191.027C102.042 198.068 101.404 207.011 101.895 215.304C102.98 233.537 113.698 252.319 129.776 253.765C149.911 255.58 153.445 271.803 154.938 281.823C155.066 282.691 156.125 282.763 156.361 281.931C160.068 268.651 175.137 256.534 179.374 243.81C183.106 232.59 189.193 220.646 199.496 217.928C205.844 216.258 213.57 218.102 218.094 212.781C221.82 208.4 221.265 201.481 221.182 195.401C220.952 178.874 229.284 159.6 243.844 158.696C248.322 158.422 252.718 159.961 257.171 160.583C274.595 163.027 292.676 149.363 297.391 130.205C299.975 119.714 298.871 108.581 298.833 97.6859C298.769 80.1904 301.551 62.6876 306.986 46.3126C309.347 39.2059 312.384 32.0414 317.641 27.3278C318.075 26.9446 318.528 26.5831 318.994 26.2433V0H319Z" fill="url(#paint0_linear_626_4226)"/>
<path fill-rule="evenodd" clip-rule="evenodd" d="M265.229 69.7641C267.143 65.2471 271.048 57.5974 275.24 53.9736C279.431 50.3498 283.91 50.7581 285.333 52.4296C286.755 54.1012 285.129 57.0296 281.754 60.0793C278.379 63.1289 273.249 66.3061 269.912 69.158C266.576 72.0099 265.025 74.53 264.215 75.0978C263.398 75.6656 263.322 74.2811 265.229 69.7641Z" fill="#F79DFF"/>
<path fill-rule="evenodd" clip-rule="evenodd" d="M268.898 97.0192C271.909 95.3093 276.547 92.9487 280.739 92.8658C284.931 92.7829 288.676 94.984 289.365 96.8533C290.054 98.7226 287.693 100.273 284.605 100.311C281.511 100.35 277.683 98.8885 273.983 98.7226C270.282 98.5568 266.697 99.6988 265.599 99.7371C264.502 99.7753 265.886 98.7226 268.898 97.0128V97.0192Z" fill="#F79DFF"/>
<path fill-rule="evenodd" clip-rule="evenodd" d="M71.7115 75.2826C71.0097 69.8787 69.102 60.532 65.6951 55.4089C62.2882 50.2857 57.3756 49.3925 55.3531 50.7515C53.3307 52.1104 54.2047 55.7342 56.9099 60.0025C59.615 64.2707 64.1575 69.196 66.8818 73.2346C69.6061 77.2731 70.512 80.4376 71.2138 81.2861C71.9156 82.1411 72.4133 80.68 71.7115 75.2762V75.2826Z" fill="#F79DFF"/>
<path fill-rule="evenodd" clip-rule="evenodd" d="M60.3998 87.1046C57.6883 84.3804 53.4201 80.4758 48.9605 79.1424C44.5008 77.809 39.8371 79.0467 38.5419 80.8459C37.2468 82.645 39.3139 84.9993 42.606 85.9626C45.9044 86.926 50.4342 86.4985 54.4473 87.4236C58.4603 88.3487 61.9501 90.6328 63.1177 91.0028C64.2788 91.3729 63.1177 89.8289 60.3998 87.1046Z" fill="#F79DFF"/>
<path fill-rule="evenodd" clip-rule="evenodd" d="M57.0883 128.939C58.9831 128.939 60.5335 127.388 60.5335 125.494C60.5335 123.599 58.9831 122.048 57.0883 122.048C55.1934 122.048 53.6431 123.599 53.6431 125.494C53.6431 127.388 55.1934 128.939 57.0883 128.939Z" fill="white"/>
<path fill-rule="evenodd" clip-rule="evenodd" d="M247.353 50.8092C249.248 50.8092 250.798 49.2589 250.798 47.364C250.798 45.4692 249.248 43.9188 247.353 43.9188C245.458 43.9188 243.908 45.4692 243.908 47.364C243.908 49.2589 245.458 50.8092 247.353 50.8092Z" fill="#F8D4FF"/>
<path fill-rule="evenodd" clip-rule="evenodd" d="M198.616 197.932C199.752 197.932 200.683 197.007 200.683 195.865C200.683 194.723 199.758 193.797 198.616 193.797C197.474 193.797 196.549 194.723 196.549 195.865C196.549 197.007 197.474 197.932 198.616 197.932Z" fill="#F8D4FF"/>
<path fill-rule="evenodd" clip-rule="evenodd" d="M138.076 235.734C138.892 235.734 139.556 235.07 139.556 234.253C139.556 233.437 138.892 232.773 138.076 232.773C137.259 232.773 136.596 233.437 136.596 234.253C136.596 235.07 137.259 235.734 138.076 235.734Z" fill="white"/>
<path fill-rule="evenodd" clip-rule="evenodd" d="M217.66 157.387C218.477 157.387 219.141 156.723 219.141 155.907C219.141 155.09 218.477 154.427 217.66 154.427C216.844 154.427 216.18 155.09 216.18 155.907C216.18 156.723 216.844 157.387 217.66 157.387Z" fill="white"/>
<path fill-rule="evenodd" clip-rule="evenodd" d="M111.975 48.8508C112.792 48.8508 113.455 48.1873 113.455 47.3707C113.455 46.554 112.792 45.8905 111.975 45.8905C111.159 45.8905 110.495 46.554 110.495 47.3707C110.495 48.1873 111.159 48.8508 111.975 48.8508Z" fill="white"/>
<path d="M135.116 85.6118C135.575 93.3635 135.116 101.16 133.725 108.797C133.259 101.045 133.732 93.2486 135.116 85.6118Z" fill="#F8D4FF"/>
<path d="M122.822 97.8682C130.465 96.5028 138.261 96.0435 146.007 96.5347C138.363 97.9064 130.567 98.353 122.822 97.8682Z" fill="#F8D4FF"/>
<path d="M127.422 91.7303C132.622 94.6204 137.362 98.3144 141.42 102.672C136.214 99.7882 131.486 96.0814 127.422 91.7303Z" fill="#F8D4FF"/>
<path d="M140.092 90.6014C137.036 95.5714 133.202 100.044 128.736 103.808C131.785 98.8316 135.633 94.3656 140.092 90.6014Z" fill="#F8D4FF"/>
<path d="M35.7919 44.5759C36.0152 48.3592 35.7919 52.1234 35.1156 55.8493C34.8859 52.066 35.1156 48.3018 35.7919 44.5759Z" fill="#F8D4FF"/>
<path d="M29.814 50.535C33.5463 49.8715 37.3105 49.6482 41.0938 49.8843C37.3615 50.5542 33.5973 50.7647 29.814 50.535Z" fill="#F8D4FF"/>
<path d="M32.0469 47.5488C34.5925 48.9652 36.8638 50.7388 38.8543 52.8697C36.3087 51.4534 34.0374 49.6734 32.0469 47.5488Z" fill="#F8D4FF"/>
<path d="M38.2165 47.0002C36.7172 49.431 34.8797 51.581 32.6978 53.4185C34.1907 50.9877 36.0409 48.844 38.2165 47.0002Z" fill="#F8D4FF"/>
<path d="M92.7154 109.289L96.4088 106.418C97.3234 105.708 98.131 105.343 98.8316 105.325C99.5323 105.307 100.293 105.826 101.113 106.881L102.343 108.464C102.981 109.285 103.21 109.991 103.03 110.582C102.831 111.15 102.431 111.724 101.829 112.305C101.973 112.344 102.207 112.5 102.532 112.774C102.84 113.024 103.19 113.354 103.583 113.763C103.981 114.13 104.393 114.563 104.817 115.06C105.247 115.516 105.644 115.979 106.008 116.448C107.12 117.878 107.89 119.329 108.319 120.801C108.772 122.255 108.909 123.69 108.732 125.107C108.578 126.506 108.111 127.865 107.331 129.185C106.557 130.464 105.49 131.632 104.13 132.689C102.77 133.746 101.363 134.5 99.9095 134.953C98.4376 135.382 96.9933 135.508 95.5764 135.33C94.1829 135.134 92.8261 134.647 91.5058 133.867C90.209 133.07 89.0048 131.956 87.8932 130.525C87.5287 130.056 87.1786 129.557 86.8428 129.028C86.4888 128.476 86.1712 127.971 85.8901 127.512C85.6142 127.012 85.393 126.582 85.2264 126.223C85.0416 125.84 84.948 125.574 84.9454 125.425C84.2524 125.889 83.6063 126.146 83.0072 126.198C82.4316 126.232 81.8157 125.827 81.1597 124.982L79.9023 123.364C79.0822 122.309 78.7674 121.444 78.9578 120.77C79.1482 120.095 79.7007 119.402 80.6153 118.692L84.2383 115.876L82.8989 114.153C82.2975 113.379 82.1168 112.711 82.3566 112.148C82.6199 111.567 83.1034 111.004 83.8069 110.457L87.5354 107.559C88.2623 106.995 88.928 106.665 89.5323 106.572C90.1601 106.46 90.7747 106.791 91.376 107.565L92.7154 109.289ZM95.3292 118.823C94.9101 118.283 94.4987 118.02 94.0949 118.033C93.6964 118.004 93.3213 118.127 92.9695 118.4C92.6178 118.673 92.4067 119.007 92.3362 119.4C92.2475 119.77 92.4127 120.224 92.8318 120.764L97.0961 126.251C97.4788 126.743 97.8694 127.004 98.2679 127.033C98.6664 127.062 99.0415 126.939 99.3933 126.666C99.745 126.393 99.9561 126.059 100.027 125.666C100.121 125.255 99.9762 124.803 99.5935 124.31L95.3292 118.823Z" fill="#D844CE"/>
<path d="M194.055 44.0376C194.872 43.8781 195.608 43.9308 196.265 44.1958C196.951 44.455 197.4 45.1239 197.611 46.2023L198.089 48.6506C198.3 49.729 198.136 50.5175 197.598 51.0161C197.06 51.5146 196.398 51.8408 195.611 51.9946L193.731 52.3621L196.004 63.9916C196.226 65.1284 196.143 66.0978 195.756 66.8998C195.391 67.6671 194.466 68.1959 192.979 68.4865L190.05 69.0591C188.563 69.3497 187.478 69.2139 186.793 68.6518C186.132 68.0548 185.69 67.1879 185.468 66.0512L180.109 38.6388C179.887 37.5021 179.97 36.5327 180.358 35.7306C180.746 34.9285 181.683 34.3822 183.169 34.0916L186.142 33.5105C186.871 33.3681 187.488 33.3533 187.995 33.4662C188.524 33.5442 188.969 33.7296 189.329 34.0224C189.683 34.286 189.964 34.6396 190.172 35.0832C190.379 35.5267 190.537 36.0254 190.646 36.5792L192.175 44.4051L194.055 44.0376Z" fill="#D844CE"/>
<path d="M240.032 111.242C239.699 112.383 239.088 113.256 238.199 113.863C237.311 114.47 236.139 114.561 234.685 114.137L219.847 109.805C218.393 109.38 217.455 108.673 217.032 107.683C216.638 106.702 216.607 105.641 216.94 104.501L222.396 85.8138C222.737 84.645 223.278 83.7975 224.02 83.2715C224.798 82.7252 225.928 82.6685 227.411 83.1013L229.891 83.8254C231.345 84.2499 232.253 84.9017 232.615 85.7808C232.977 86.66 232.992 87.6697 232.659 88.8101L231.772 91.8462L234.295 92.5828L235.182 89.5466C235.523 88.3778 236.079 87.5345 236.849 87.0168C237.627 86.4705 238.743 86.4097 240.197 86.8341L242.72 87.5707C244.174 87.9952 245.082 88.647 245.444 89.5262C245.814 90.3768 245.829 91.3866 245.488 92.5554L240.032 111.242ZM228.264 103.862L230.787 104.599L232.023 100.366L229.5 99.6289L228.264 103.862Z" fill="#D844CE"/>
<path d="M135.103 18.6377C136.464 19.3018 137.295 20.0706 137.596 20.9443C137.923 21.831 137.807 22.8482 137.247 23.996L128.263 42.4133C127.768 43.4276 127.084 44.0519 126.209 44.2862C125.335 44.5206 124.404 44.3969 123.416 43.9151L120.534 42.5089C119.546 42.0271 118.889 41.3761 118.562 40.5558C118.235 39.7355 118.319 38.8182 118.814 37.8039L125.982 23.1101L116.693 18.5789C115.919 18.2013 115.369 17.6688 115.044 16.9813C114.718 16.2938 114.79 15.4697 115.259 14.5088L116.118 12.7471C116.6 11.7595 117.205 11.1957 117.935 11.0558C118.677 10.8891 119.435 10.9946 120.209 11.3722L135.103 18.6377Z" fill="#D844CE"/>
<path d="M133.146 108.6C131.952 113.356 131.967 123.081 134.788 131.265C134.476 126.701 135.357 115.825 144.171 110.713C152.898 105.653 166.395 128.556 166.671 129.023C166.359 125.158 164.752 120.706 161.416 115.802C151.074 100.589 141.412 97.4359 140.066 97.6831C138.72 97.9304 134.738 102.254 133.146 108.6Z" fill="#AC08A1"/>
<path d="M155.104 144.263C162.203 142.628 167.314 137.096 166.658 128.967C166.384 128.503 152.887 105.6 144.157 110.657C135.34 115.766 134.459 126.648 134.774 131.209C137.763 139.891 143.907 146.838 155.104 144.263Z" fill="#F79DFF"/>
<path d="M143.805 67.3591C143.805 67.3591 155.113 47.5102 178.385 56.3457C201.657 65.1812 193.886 86.5765 188.53 95.0596C183.174 103.543 167.553 116.137 163.17 116.893C163.17 116.893 173.024 115.724 188.273 127.701C203.521 139.678 205.099 150.53 205.315 157.686C205.389 160.115 205.507 164.542 205.689 166.566C205.898 168.937 188.008 175.086 167.307 166.982C140.569 156.515 129.107 147.247 127.744 136.131C126.38 125.015 134.337 117.782 147.365 112.732C160.393 107.682 164.012 103.843 165.715 99.5786C167.417 95.3141 167.568 89.1929 154.809 86.3281C142.05 83.4632 137.658 77.1913 143.801 67.3574L143.805 67.3591Z" fill="#F8D4FF"/>
<path d="M127.029 77.1355C126.008 78.53 125.032 80.1176 124.142 81.9297C116.96 96.5446 121.777 99.0713 122.621 99.4346C123.465 99.7979 127.085 92.1661 136.636 88.8785C135.458 77.5871 127.049 77.1344 127.029 77.1355Z" fill="#434343"/>
<path d="M152.725 84.1211C153.228 82.431 157.051 70.4619 143.81 67.3606C143.81 67.3606 132.766 67.4684 125.466 79.5438C125.949 78.7453 126.446 78.0014 126.958 77.3021C126.976 77.305 135.387 77.7537 136.565 89.0451C146.115 85.7574 152.219 85.8094 152.721 84.1194L152.725 84.1211Z" fill="#F79DFF"/>
<path d="M208.517 125.22C204.354 122.629 195.09 119.669 186.436 119.852C190.876 120.95 200.961 125.116 203.134 135.07C205.282 144.927 179.349 150.774 178.82 150.894C182.596 151.779 187.326 151.61 193.014 149.933C210.662 144.739 216.618 136.504 216.794 135.147C216.971 133.79 214.072 128.676 208.517 125.22Z" fill="#AC08A1"/>
<path d="M167.847 135.22C167.232 142.479 170.936 149.037 178.877 150.898C179.403 150.78 205.336 144.933 203.191 135.074C201.022 125.118 190.931 120.951 186.493 119.856C177.313 120.047 168.819 123.772 167.847 135.22Z" fill="#F79DFF"/>
<path d="M164.21 82.8554C168.491 84.6986 173.106 83.5342 174.518 80.2548C175.93 76.9754 173.604 72.8227 169.323 70.9796C165.042 69.1364 160.427 70.3008 159.015 73.5802C157.603 76.8596 159.929 81.0123 164.21 82.8554Z" fill="#FFFDFE"/>
<path d="M157.628 202.725L160.56 200.715L142.727 169.411L141.221 174.007L157.628 202.725Z" fill="#434343"/>
<path d="M151.798 203.945L151.873 204.112C152.49 205.487 154.076 206.035 155.409 205.333L164.627 200.484C165.408 200.073 165.748 199.088 165.386 198.281L165.093 197.629C164.817 197.014 164.11 196.769 163.514 197.083L152.092 203.092C151.79 203.251 151.658 203.634 151.798 203.945Z" fill="#434343"/>
<path d="M150.197 158.953L147.426 157.137L141.181 168.691C140.064 170.758 140.267 173.352 141.636 174.464L141.906 174.684L149.914 159.609L150.197 158.953Z" fill="#434343"/>
<path d="M141.297 199.613L138.392 197.842L160.222 162.049L157.438 160.061L135.48 196.066L130.831 193.23C130.553 193.061 130.19 193.15 130.02 193.43C129.202 194.77 129.62 196.516 130.952 197.329L139.388 202.473C140.18 202.956 141.216 202.718 141.724 201.935L141.791 201.826C142.278 201.077 142.055 200.076 141.297 199.613Z" fill="#434343"/>
<path d="M162.965 71.5149C165.546 70.6128 166.473 70.8704 167.969 73.2841" stroke="#434343" stroke-width="3.29392" stroke-linecap="round"/>
<path d="M165.338 71.0223C165.671 71.1684 166.061 71.0148 166.208 70.6792C166.355 70.3436 166.204 69.9532 165.87 69.8071C165.537 69.6611 165.147 69.8147 165 70.1503C164.853 70.4858 165.004 70.8762 165.338 71.0223Z" fill="#FFFDFE"/>
<path d="M155.015 66.6574C157.596 65.7554 158.523 66.0129 160.019 68.4266" stroke="#434343" stroke-width="3.29392" stroke-linecap="round"/>
<path d="M157.981 66.5272C158.315 66.6733 158.704 66.5197 158.851 66.1841C158.998 65.8485 158.847 65.4581 158.513 65.312C158.18 65.166 157.79 65.3196 157.643 65.6551C157.496 65.9907 157.647 66.3811 157.981 66.5272Z" fill="#FFFDFE"/>
<defs>
<linearGradient id="paint0_linear_626_4226" x1="159.5" y1="0" x2="159.5" y2="282.516" gradientUnits="userSpaceOnUse">
<stop offset="0.216581" stop-color="#FDEFFF"/>
<stop offset="0.626666" stop-color="white"/>
</linearGradient>
</defs>
</svg>
