<svg width="115" height="134" viewBox="0 0 115 134" fill="none" xmlns="http://www.w3.org/2000/svg">
<path d="M10.1553 29.5445C10.1553 29.5445 12.2353 10.9251 32.6319 10.0329C53.0285 9.14072 54.1136 27.7783 52.8303 35.9057C51.5469 44.0331 43.8648 58.587 40.8079 60.5781C40.8079 60.5781 47.8519 56.5017 63.2232 60.5781C78.5946 64.6545 83.3026 72.3177 85.7864 77.638C86.63 79.4441 88.1549 82.7408 88.9479 84.206C89.8744 85.925 78.3927 96.359 60.1699 96.9683C36.6334 97.7553 24.9931 94.4913 20.3608 86.5597C15.7285 78.6281 19.3766 70.5986 27.5526 62.5691C35.7285 54.5396 37.2102 50.4741 37.1092 46.7096C37.0083 42.9451 35.1373 38.2848 24.5966 40.265C14.0558 42.2452 8.71329 38.9449 10.1517 29.5445H10.1553Z" fill="#F8D4FF"/>
<path d="M0.688629 42.3499C0.371397 43.7316 0.151497 45.244 0.0685837 46.8977C-0.601931 60.2367 3.84654 60.5776 4.59997 60.5776C5.35339 60.5776 5.60574 53.6543 11.7341 48.08C7.18469 39.9562 0.703049 42.3426 0.688629 42.3499Z" fill="#434343"/>
<path d="M22.3108 39.2781C22.1414 37.8419 21.1392 27.5856 10.1587 29.544C10.1587 29.544 1.87455 33.207 0.291992 44.671C0.396535 43.913 0.529917 43.1913 0.688533 42.4986C0.702953 42.4949 7.18459 40.105 11.734 48.2287C17.8624 42.6545 22.4767 40.7142 22.3072 39.2781H22.3108Z" fill="#F79DFF"/>
<path d="M82.0664 72.7199C80.0729 69.2274 74.5429 63.4791 68.2271 60.2368C71.0029 62.761 76.6554 69.6989 74.3411 77.7283C72.0483 85.6781 51.0569 79.7847 50.6279 79.665C53.0072 81.7757 56.4859 83.4984 61.2444 84.5066C76.0029 87.6401 83.512 84.0207 84.1681 83.1104C84.8242 82.2001 84.7268 77.3802 82.0664 72.7199Z" fill="#AC08A1"/>
<path d="M48.8215 64.0774C45.5483 69.075 45.6636 75.2513 50.6673 79.6903C51.0926 79.81 72.0841 85.7034 74.3804 77.7537C76.6984 69.7242 71.0422 62.7827 68.2665 60.2622C61.5685 56.8204 53.9874 56.1966 48.8215 64.0774Z" fill="#F79DFF"/>
<path d="M36.637 111.428L36.1611 108.653L65.6133 103.413L63.6847 106.648L36.637 111.428Z" fill="#434343"/>
<path d="M37.6611 118.024H37.5169C36.3237 118.024 35.354 117.049 35.354 115.848V107.551C35.354 106.847 35.9199 106.278 36.6193 106.278H37.1852C37.7188 106.278 38.1514 106.713 38.1514 107.25V117.531C38.1514 117.803 37.9315 118.024 37.6611 118.024Z" fill="#434343"/>
<path d="M60.7764 96.935L63.5413 96.7319L65.6142 103.412C66.0287 104.747 65.2825 106.165 63.9523 106.568L63.6891 106.647L60.78 96.935H60.7764Z" fill="#434343"/>
<path d="M47.9708 131.182H45.1806V96.7973L42.3831 96.5942V131.182H37.9167C37.6499 131.182 37.4336 131.4 37.4336 131.668C37.4336 132.955 38.4718 134 39.7516 134H47.8554C48.616 134 49.2397 133.391 49.2613 132.625V132.52C49.283 131.788 48.699 131.182 47.9708 131.182Z" fill="#434343"/>
<path d="M30.5523 34.6C34.3749 34.6 37.4737 32.2262 37.4737 29.2978C37.4737 26.3695 34.3749 23.9956 30.5523 23.9956C26.7297 23.9956 23.6309 26.3695 23.6309 29.2978C23.6309 32.2262 26.7297 34.6 30.5523 34.6Z" fill="#FFFDFE"/>
<path d="M25.853 23.5647C25.853 22.7515 25.1977 22.0923 24.3894 22.0923C23.5811 22.0923 22.9258 22.7515 22.9258 23.5647V26.7888C22.9258 27.6021 23.5811 28.2613 24.3894 28.2613C25.1977 28.2613 25.853 27.6021 25.853 26.7888V23.5647Z" fill="#434343"/>
<path d="M24.1081 24.2648C24.4068 24.2648 24.6489 24.0212 24.6489 23.7208C24.6489 23.4203 24.4068 23.1768 24.1081 23.1768C23.8095 23.1768 23.5674 23.4203 23.5674 23.7208C23.5674 24.0212 23.8095 24.2648 24.1081 24.2648Z" fill="#FFFDFE"/>
<path d="M21.9272 21.4724C21.9272 20.6592 21.2719 20 20.4636 20C19.6553 20 19 20.6592 19 21.4724V24.6966C19 25.5098 19.6553 26.169 20.4636 26.169C21.2719 26.169 21.9272 25.5098 21.9272 24.6966V21.4724Z" fill="#434343"/>
<path d="M20.1823 22.0929C20.481 22.0929 20.7231 21.8493 20.7231 21.5489C20.7231 21.2484 20.481 21.0049 20.1823 21.0049C19.8837 21.0049 19.6416 21.2484 19.6416 21.5489C19.6416 21.8493 19.8837 22.0929 20.1823 22.0929Z" fill="#FFFDFE"/>
<path d="M63.0927 35.7865L69.0216 21.7649V5.62521C69.0216 2.51924 71.5375 0 74.6393 0H108.501C111.603 0 114.119 2.51924 114.119 5.62521V23.777C114.119 26.883 111.603 29.4022 108.501 29.4022H75.8377L64.7975 37.1655C63.8607 37.8251 62.6491 36.8439 63.096 35.7865H63.0927Z" fill="#FDEFFF"/>
<path d="M99.0603 15.246C98.7618 13.4102 100.006 11.6796 101.839 11.3806C103.673 11.0816 105.401 12.3275 105.7 14.1633C105.998 15.9991 104.754 17.7297 102.921 18.0287C101.087 18.3276 99.3589 17.0818 99.0603 15.246Z" fill="#AC08A1"/>
<path d="M88.2969 15.4749C87.8683 13.6651 88.9861 11.85 90.7935 11.4209C92.6009 10.9917 94.4136 12.111 94.8421 13.9208C95.2707 15.7306 94.153 17.5457 92.3455 17.9748C90.5381 18.404 88.7255 17.2847 88.2969 15.4749Z" fill="#AC08A1"/>
<path d="M78.6626 17.3347C77.2064 16.1798 76.9609 14.0617 78.1142 12.6036C79.2675 11.1455 81.3829 10.8997 82.839 12.0545C84.2951 13.2093 84.5407 15.3275 83.3874 16.7856C82.2341 18.2437 80.1187 18.4895 78.6626 17.3347Z" fill="#AC08A1"/>
</svg>
