<svg width="231" height="216" viewBox="0 0 231 216" fill="none" xmlns="http://www.w3.org/2000/svg">
<g filter="url(#filter0_d_737_5760)">
<rect x="0.751953" y="36.2944" width="138" height="38" rx="19" transform="rotate(-14.9249 0.751953 36.2944)" fill="white"/>
</g>
<path d="M29.3109 54.5551L27.0091 55.1687L25.6538 50.084L20.0022 51.5904L21.3575 56.6751L19.0557 57.2886L15.8506 45.264L18.1524 44.6505L19.4573 49.5462L25.1089 48.0398L23.804 43.1441L26.1058 42.5305L29.3109 54.5551ZM29.8714 42.9987C29.4592 43.1086 29.0878 43.0727 28.7572 42.8909C28.4236 42.6977 28.2064 42.4122 28.1057 42.0343C28.005 41.6563 28.0527 41.3063 28.249 40.9842C28.4422 40.6506 28.7449 40.4288 29.1572 40.3189C29.5694 40.209 29.9408 40.245 30.2714 40.4267C30.5989 40.597 30.8115 40.8654 30.9092 41.2318C31.016 41.6326 30.9728 41.9998 30.7796 42.3335C30.5979 42.664 30.2952 42.8857 29.8714 42.9987ZM31.3772 44.1612L33.8268 53.3515L31.5937 53.9467L29.1441 44.7564L31.3772 44.1612ZM36.3525 49.6241C36.7762 49.5112 37.1622 49.5555 37.5103 49.7571C37.8584 49.9587 38.0904 50.277 38.2064 50.7122C38.2644 50.9298 38.2923 51.1493 38.2899 51.3707C38.2991 51.589 38.2754 51.9143 38.2188 52.3464L37.946 55.0501L36.4687 55.4439L36.4587 52.5763C36.1709 52.5549 35.922 52.4496 35.7121 52.2602C35.4991 52.0594 35.3514 51.8044 35.269 51.4952C35.153 51.06 35.1958 50.6684 35.3974 50.3202C35.6104 49.9691 35.9288 49.737 36.3525 49.6241ZM42.9494 38.041L46.1545 50.0656L43.8526 50.6791L40.6475 38.6545L42.9494 38.041ZM46.1087 36.2973C46.5439 36.1813 46.9298 36.2257 47.2664 36.4303C47.6115 36.6204 47.842 36.9331 47.958 37.3683C48.016 37.5859 48.0496 37.8038 48.0587 38.0222C48.0678 38.2405 48.0457 38.5715 47.9922 39.015L47.6976 41.7061L46.2202 42.0999L46.2148 39.2496C45.924 39.2167 45.6736 39.1056 45.4637 38.9163C45.2537 38.7269 45.106 38.4719 45.0206 38.1512C44.9046 37.7161 44.9489 37.3301 45.1535 36.9935C45.3666 36.6423 45.685 36.4103 46.1087 36.2973ZM61.3762 36.0363C62.4642 35.7463 63.4131 35.8552 64.2231 36.363C65.0445 36.8678 65.6322 37.7843 65.9863 39.1128L67.3966 44.4036L65.1978 44.9897L63.8837 40.0596C63.6761 39.2808 63.3529 38.7353 62.9139 38.423C62.4864 38.1077 61.9807 38.0278 61.3966 38.1835C60.7324 38.3606 60.2609 38.7315 59.9822 39.2965C59.7119 39.8469 59.6897 40.5458 59.9155 41.3933L61.161 46.0657L58.9622 46.6518L57.6481 41.7217C57.4375 40.9315 57.1199 40.3844 56.6955 40.0805C56.268 39.7652 55.7565 39.6869 55.161 39.8456C54.4968 40.0226 54.031 40.3921 53.7638 40.954C53.4934 41.5044 53.4712 42.2033 53.6971 43.0508L54.9425 47.7232L52.7265 48.3138L50.2769 39.1236L52.3898 38.5604L52.7241 39.8144C52.9257 39.2823 53.2422 38.8361 53.6736 38.4758C54.1019 38.1041 54.6195 37.8373 55.2265 37.6755C55.8793 37.5015 56.4958 37.4905 57.076 37.6425C57.6646 37.78 58.1753 38.0854 58.6081 38.5588C58.8112 37.9405 59.1495 37.4149 59.6229 36.982C60.1047 36.5347 60.6891 36.2195 61.3762 36.0363ZM81.4149 32.2958L79.4993 39.7426L78.4687 40.0173L73.1374 34.6493L75.1841 42.3279L73.0368 42.9002L69.8317 30.8756L71.7213 30.372L78.2583 37.0192L80.5508 28.0185L82.4404 27.5148L85.6627 39.5349L83.5154 40.1072L81.4149 32.2958ZM86.262 27.9681C85.8497 28.078 85.4783 28.042 85.1478 27.8603C84.8142 27.6671 84.597 27.3816 84.4963 27.0036C84.3955 26.6257 84.4433 26.2757 84.6395 25.9535C84.8327 25.6199 85.1355 25.3982 85.5477 25.2883C85.96 25.1784 86.3314 25.2143 86.662 25.3961C86.9895 25.5664 87.2021 25.8347 87.2997 26.2012C87.4066 26.602 87.3634 26.9692 87.1702 27.3028C86.9885 27.6334 86.6857 27.8551 86.262 27.9681ZM87.7678 29.1306L90.2174 38.3208L87.9842 38.9161L85.5346 29.7258L87.7678 29.1306ZM95.0412 27.0631C96.1291 26.7731 97.0895 26.879 97.9224 27.3807C98.7667 27.8793 99.3659 28.7928 99.72 30.1212L101.13 35.4121L98.9142 36.0027L97.6001 31.0726C97.3895 30.2825 97.0605 29.7385 96.6132 29.4407C96.1743 29.1284 95.6341 29.0577 94.9928 29.2286C94.2828 29.4179 93.7785 29.8037 93.4799 30.3862C93.1897 30.9542 93.1606 31.6733 93.3926 32.5437L94.6197 37.1474L92.4038 37.7381L89.9542 28.5478L92.067 27.9846L92.4059 29.2558C92.6189 28.7207 92.9511 28.2642 93.4023 27.8863C93.865 27.5054 94.4113 27.231 95.0412 27.0631ZM111.68 31.0729C112.547 34.3253 111.389 36.3757 108.205 37.2243C107.369 37.4472 106.549 37.5433 105.743 37.5126C104.941 37.4935 104.237 37.3376 103.632 37.0452L104.081 35.1408C104.559 35.3691 105.104 35.5058 105.717 35.551C106.345 35.6045 106.95 35.5534 107.535 35.3977C108.474 35.1474 109.101 34.7409 109.417 34.1783C109.733 33.6157 109.769 32.8763 109.525 31.9601L109.351 31.3074C109.15 31.8395 108.827 32.2872 108.385 32.6505C107.942 33.0139 107.411 33.278 106.793 33.4428C105.991 33.6565 105.209 33.6686 104.447 33.4792C103.682 33.2783 103.015 32.892 102.446 32.3201C101.876 31.7482 101.476 31.0271 101.244 30.1567C101.012 29.2864 101.002 28.4672 101.214 27.6992C101.423 26.9197 101.811 26.2582 102.378 25.7147C102.941 25.1598 103.624 24.7755 104.425 24.5618C105.09 24.3847 105.713 24.3535 106.296 24.4681C106.878 24.5827 107.401 24.8419 107.864 25.2458L107.498 23.8716L109.611 23.3084L111.68 31.0729ZM106.714 31.4216C107.447 31.2262 107.985 30.8312 108.33 30.2365C108.686 29.6388 108.763 28.962 108.561 28.2062C108.363 27.4618 107.962 26.9247 107.359 26.5948C106.764 26.2504 106.101 26.1759 105.368 26.3713C104.635 26.5666 104.09 26.9632 103.735 27.5609C103.376 28.1472 103.295 28.8125 103.494 29.5569C103.692 30.3013 104.096 30.8499 104.705 31.2026C105.311 31.544 105.981 31.617 106.714 31.4216ZM117.991 31.0466C117.087 31.2878 116.22 31.3041 115.392 31.0956C114.563 30.8871 113.847 30.477 113.242 29.8654C112.649 29.2508 112.232 28.4911 111.991 27.5864C111.75 26.6817 111.735 25.8209 111.947 25.004C112.167 24.1727 112.584 23.4604 113.199 22.8673C113.813 22.2742 114.573 21.857 115.478 21.6159C116.371 21.3778 117.226 21.3645 118.043 21.5761C118.871 21.7846 119.582 22.1962 120.175 22.8108C120.765 23.414 121.181 24.168 121.422 25.0727C121.663 25.9774 121.679 26.8439 121.471 27.6722C121.262 28.5005 120.851 29.2113 120.236 29.8044C119.633 30.3945 118.885 30.8085 117.991 31.0466ZM117.478 29.1227C118.189 28.9334 118.705 28.5258 119.029 27.8998C119.361 27.2593 119.414 26.5154 119.189 25.6679C118.963 24.8205 118.548 24.2074 117.944 23.8286C117.352 23.4469 116.7 23.3506 115.99 23.5398C115.269 23.7321 114.741 24.1428 114.405 24.7719C114.07 25.4009 114.015 26.1391 114.241 26.9866C114.467 27.834 114.884 28.4529 115.49 28.8431C116.094 29.2218 116.757 29.315 117.478 29.1227ZM123.668 16.5259L125.333 24.6373L123.495 25.1272L120.902 17.2631L123.668 16.5259ZM125.514 29.0416C125.101 29.1515 124.717 29.1129 124.36 28.9258C124.012 28.7242 123.786 28.4288 123.683 28.0394C123.576 27.6386 123.626 27.2756 123.834 26.9504C124.038 26.6137 124.353 26.3889 124.776 26.276C125.2 26.163 125.584 26.2016 125.93 26.3918C126.283 26.5674 126.513 26.8556 126.62 27.2564C126.724 27.6458 126.669 28.0161 126.456 28.3672C126.251 28.7039 125.937 28.9287 125.514 29.0416Z" fill="#AC08A1"/>
<path d="M205.731 49.2811V51.5565H204.101V49.2811H205.731Z" fill="#F8D4FF"/>
<path d="M205.731 54.3157V56.5911H204.101V54.3157H205.731Z" fill="#F8D4FF"/>
<path d="M208.566 52.1238V53.7547H206.298V52.1238H208.566Z" fill="#F8D4FF"/>
<path d="M203.54 52.1238V53.7547H201.265V52.1238H203.54Z" fill="#F8D4FF"/>
<path d="M168.8 14.7521V17.0275H167.169V14.7521H168.8Z" fill="#F8D4FF"/>
<path d="M168.8 19.7867V22.0621H167.169V19.7867H168.8Z" fill="#F8D4FF"/>
<path d="M171.635 17.5948V19.2257H169.366V17.5948H171.635Z" fill="#F8D4FF"/>
<path d="M166.608 17.5948V19.2257H164.333V17.5948H166.608Z" fill="#F8D4FF"/>
<path d="M76.3154 74.4506V76.7202H74.6846V74.4506H76.3154Z" fill="#F8D4FF"/>
<path d="M76.3154 79.479V81.7544H74.6846V79.479H76.3154Z" fill="#F8D4FF"/>
<path d="M79.1514 77.2871V78.918H76.876V77.2871H79.1514Z" fill="#F8D4FF"/>
<path d="M74.1182 77.2871V78.918H71.8428V77.2871H74.1182Z" fill="#F8D4FF"/>
<path d="M51.4658 109.463V111.733H49.835V109.463H51.4658Z" fill="#F8D4FF"/>
<path d="M51.4658 114.491V116.767H49.835V114.491H51.4658Z" fill="#F8D4FF"/>
<path d="M54.3018 112.3V113.93H52.0264V112.3H54.3018Z" fill="#F8D4FF"/>
<path d="M49.2676 112.3V113.93H46.999V112.3H49.2676Z" fill="#F8D4FF"/>
<path d="M111.372 57.7208C111.372 57.7208 114.521 29.6415 145.399 28.296C176.276 26.9506 177.919 55.0572 175.976 67.3139C174.033 79.5706 162.404 101.519 157.776 104.521C157.776 104.521 168.44 98.374 191.71 104.521C214.98 110.669 222.107 122.226 225.867 130.249C227.144 132.973 229.452 137.944 230.653 140.154C232.055 142.746 214.674 158.481 187.087 159.4C151.456 160.587 133.835 155.665 126.822 143.703C119.809 131.742 125.332 119.633 137.709 107.524C150.087 95.4151 152.33 89.284 152.177 83.6069C152.024 77.9298 149.192 70.9018 133.234 73.888C117.277 76.8742 109.189 71.8972 111.367 57.7208H111.372Z" fill="#F8D4FF"/>
<path d="M97.0415 77.0325C96.5613 79.1163 96.2284 81.397 96.1028 83.8909C95.0878 104.007 101.822 104.521 102.963 104.521C104.103 104.521 104.485 94.0802 113.763 85.6739C106.876 73.4227 97.0633 77.0215 97.0415 77.0325Z" fill="#434343"/>
<path d="M129.775 72.4C129.518 70.2342 128.001 54.767 111.378 57.7204C111.378 57.7204 98.8372 63.2444 96.4414 80.5328C96.5997 79.3897 96.8016 78.3014 97.0417 77.2567C97.0635 77.2513 106.876 73.647 113.763 85.8982C123.04 77.4919 130.026 74.5658 129.769 72.4H129.775Z" fill="#F79DFF"/>
<path d="M220.235 122.832C217.217 117.565 208.845 108.897 199.284 104.007C203.486 107.814 212.043 118.277 208.54 130.385C205.069 142.374 173.291 133.487 172.642 133.306C176.243 136.489 181.51 139.087 188.713 140.608C211.056 145.333 222.423 139.875 223.416 138.502C224.41 137.129 224.262 129.86 220.235 122.832Z" fill="#AC08A1"/>
<path d="M169.908 109.799C164.953 117.336 165.128 126.65 172.702 133.344C173.346 133.525 205.124 142.412 208.601 130.424C212.11 118.315 203.547 107.847 199.345 104.045C189.205 98.855 177.728 97.9143 169.908 109.799Z" fill="#F79DFF"/>
<path d="M151.462 181.206L150.741 177.022L195.327 169.119L192.408 173.998L151.462 181.206Z" fill="#434343"/>
<path d="M153.012 191.155H152.793C150.987 191.155 149.519 189.683 149.519 187.873V175.359C149.519 174.298 150.376 173.44 151.435 173.44H152.291C153.099 173.44 153.754 174.096 153.754 174.905V190.411C153.754 190.821 153.421 191.155 153.012 191.155Z" fill="#434343"/>
<path d="M188.004 159.35L192.19 159.044L195.328 169.119C195.955 171.131 194.826 173.27 192.812 173.877L192.413 173.997L188.009 159.35H188.004Z" fill="#434343"/>
<path d="M168.62 210.997H164.396V159.143L160.161 158.837V210.997H153.399C152.995 210.997 152.668 211.325 152.668 211.73C152.668 213.672 154.24 215.247 156.177 215.247H168.445C169.597 215.247 170.541 214.328 170.573 213.174V213.015C170.606 211.91 169.722 210.997 168.62 210.997Z" fill="#434343"/>
<path d="M142.251 65.3448C148.037 65.3448 152.729 61.7649 152.729 57.3488C152.729 52.9326 148.037 49.3527 142.251 49.3527C136.464 49.3527 131.772 52.9326 131.772 57.3488C131.772 61.7649 136.464 65.3448 142.251 65.3448Z" fill="#FFFDFE"/>
<path d="M135.136 48.7033C135.136 47.4769 134.144 46.4827 132.921 46.4827C131.697 46.4827 130.705 47.4769 130.705 48.7033V53.5655C130.705 54.7918 131.697 55.786 132.921 55.786C134.144 55.786 135.136 54.7918 135.136 53.5655V48.7033Z" fill="#434343"/>
<path d="M132.495 49.7592C132.947 49.7592 133.314 49.3919 133.314 48.9388C133.314 48.4857 132.947 48.1184 132.495 48.1184C132.043 48.1184 131.677 48.4857 131.677 48.9388C131.677 49.3919 132.043 49.7592 132.495 49.7592Z" fill="#FFFDFE"/>
<path d="M129.194 45.5479C129.194 44.3216 128.202 43.3274 126.978 43.3274C125.755 43.3274 124.763 44.3216 124.763 45.5479V50.4101C124.763 51.6365 125.755 52.6306 126.978 52.6306C128.202 52.6306 129.194 51.6365 129.194 50.4101V45.5479Z" fill="#434343"/>
<path d="M126.553 46.4834C127.005 46.4834 127.372 46.1161 127.372 45.663C127.372 45.21 127.005 44.8427 126.553 44.8427C126.101 44.8427 125.734 45.21 125.734 45.663C125.734 46.1161 126.101 46.4834 126.553 46.4834Z" fill="#FFFDFE"/>
<defs>
<filter id="filter0_d_737_5760" x="0" y="0" width="144.636" height="73.7646" filterUnits="userSpaceOnUse" color-interpolation-filters="sRGB">
<feFlood flood-opacity="0" result="BackgroundImageFix"/>
<feColorMatrix in="SourceAlpha" type="matrix" values="0 0 0 0 0 0 0 0 0 0 0 0 0 0 0 0 0 0 127 0" result="hardAlpha"/>
<feOffset/>
<feGaussianBlur stdDeviation="2.5"/>
<feComposite in2="hardAlpha" operator="out"/>
<feColorMatrix type="matrix" values="0 0 0 0 0.85098 0 0 0 0 0.85098 0 0 0 0 0.85098 0 0 0 1 0"/>
<feBlend mode="normal" in2="BackgroundImageFix" result="effect1_dropShadow_737_5760"/>
<feBlend mode="normal" in="SourceGraphic" in2="effect1_dropShadow_737_5760" result="shape"/>
</filter>
</defs>
</svg>
