<svg width="34" height="34" viewBox="0 0 34 34" fill="none" xmlns="http://www.w3.org/2000/svg">
<rect x="0.34" y="0.34" width="33.32" height="33.32" rx="16.66" fill="white"/>
<rect x="0.34" y="0.34" width="33.32" height="33.32" rx="16.66" stroke="#C4C4C4" stroke-width="0.68"/>
<path d="M20.9944 13.45C20.9079 13.3716 20.7952 13.3299 20.6793 13.3334C20.5634 13.3368 20.4533 13.3852 20.3714 13.4686C20.2896 13.5519 20.2423 13.6639 20.2392 13.7816C20.2361 13.8993 20.2775 14.0137 20.3549 14.1013C21.1107 14.8708 21.5351 15.9133 21.5351 17.0002C21.5351 18.087 21.1107 19.1295 20.3549 19.899C20.3088 19.9407 20.2716 19.9915 20.2456 20.0483C20.2195 20.1051 20.2051 20.1667 20.2033 20.2293C20.2015 20.292 20.2123 20.3543 20.235 20.4126C20.2578 20.4708 20.292 20.5238 20.3355 20.5681C20.3791 20.6125 20.4311 20.6474 20.4884 20.6706C20.5457 20.6939 20.6071 20.705 20.6688 20.7034C20.7304 20.7017 20.7911 20.6873 20.8471 20.661C20.9031 20.6347 20.9533 20.597 20.9944 20.5504C21.9203 19.6081 22.4403 18.3313 22.4403 17.0002C22.4403 15.669 21.9203 14.3922 20.9944 13.45V13.45Z" fill="#7B7B7B"/>
<path d="M19.7667 14.8326C19.7248 14.7886 19.6748 14.7536 19.6194 14.7294C19.5641 14.7053 19.5046 14.6926 19.4443 14.692C19.3841 14.6915 19.3244 14.7032 19.2686 14.7263C19.2129 14.7495 19.1623 14.7837 19.1197 14.8269C19.0771 14.8702 19.0434 14.9216 19.0206 14.9782C18.9978 15.0348 18.9863 15.0955 18.9868 15.1567C18.9874 15.2178 18.9999 15.2783 19.0236 15.3345C19.0474 15.3907 19.082 15.4415 19.1253 15.484C19.5207 15.8867 19.7427 16.4322 19.7427 17.0009C19.7427 17.5696 19.5207 18.1151 19.1253 18.5178C19.082 18.5603 19.0474 18.6111 19.0236 18.6673C18.9999 18.7235 18.9874 18.784 18.9868 18.8451C18.9863 18.9063 18.9978 18.967 19.0206 19.0236C19.0434 19.0802 19.0771 19.1316 19.1197 19.1749C19.1623 19.2181 19.2129 19.2523 19.2686 19.2755C19.3244 19.2986 19.3841 19.3103 19.4443 19.3098C19.5046 19.3092 19.5641 19.2965 19.6194 19.2724C19.6748 19.2482 19.7248 19.2132 19.7667 19.1692C20.332 18.5936 20.6495 17.8138 20.6495 17.0009C20.6495 16.188 20.332 15.4082 19.7667 14.8326V14.8326Z" fill="#7B7B7B"/>
<path d="M17.8281 11.5676C16.4499 11.8303 15.2238 12.6207 14.4031 13.7755H13.828C13.2267 13.7762 12.6503 14.0191 12.2251 14.4509C11.8 14.8827 11.5608 15.4681 11.5601 16.0787V17.9213C11.5608 18.5319 11.8 19.1173 12.2251 19.5491C12.6503 19.9809 13.2267 20.2238 13.828 20.2245H14.4036C15.224 21.3793 16.45 22.1697 17.8281 22.4324C17.8935 22.4446 17.9608 22.4421 18.0251 22.425C18.0895 22.4079 18.1493 22.3766 18.2004 22.3334C18.2515 22.2902 18.2927 22.2361 18.3209 22.175C18.3491 22.1138 18.3638 22.0471 18.3638 21.9796V12.0204C18.3638 11.9529 18.3491 11.8862 18.3209 11.825C18.2927 11.7639 18.2515 11.7098 18.2004 11.6666C18.1493 11.6234 18.0895 11.5921 18.0251 11.575C17.9608 11.5579 17.8935 11.5554 17.8281 11.5676V11.5676Z" fill="#7B7B7B"/>
</svg>
