<svg width="63" height="63" viewBox="0 0 63 63" fill="none" xmlns="http://www.w3.org/2000/svg">
<g>
<g>
<circle cx="31.5" cy="31.5" r="25" fill="#AC08A1"/>
<circle cx="31.5" cy="31.5" r="25.75" stroke="white" stroke-width="1.5"/>
</g>
<path d="M41.0625 29.5625H32.4375V20.9375C32.4375 20.1436 31.7939 19.5 31 19.5C30.2061 19.5 29.5625 20.1436 29.5625 20.9375V29.5625H20.9375C20.1436 29.5625 19.5 30.2061 19.5 31C19.5 31.7939 20.1436 32.4375 20.9375 32.4375H29.5625V41.0625C29.5625 41.8564 30.2061 42.5 31 42.5C31.7939 42.5 32.4375 41.8564 32.4375 41.0625V32.4375H41.0625C41.8564 32.4375 42.5 31.7939 42.5 31C42.5 30.2061 41.8564 29.5625 41.0625 29.5625Z" fill="#FFF7FE"/>
</g>
</svg>
