<svg width="53" height="53" viewBox="0 0 53 53" fill="none" xmlns="http://www.w3.org/2000/svg">
<circle cx="26.5" cy="26.5" r="25.75" fill="#AC08A1" stroke="#AC08A1" stroke-width="1.5"/>
<path d="M36.0625 24.5625H27.4375V15.9375C27.4375 15.1436 26.7939 14.5 26 14.5C25.2061 14.5 24.5625 15.1436 24.5625 15.9375V24.5625H15.9375C15.1436 24.5625 14.5 25.2061 14.5 26C14.5 26.7939 15.1436 27.4375 15.9375 27.4375H24.5625V36.0625C24.5625 36.8564 25.2061 37.5 26 37.5C26.7939 37.5 27.4375 36.8564 27.4375 36.0625V27.4375H36.0625C36.8564 27.4375 37.5 26.7939 37.5 26C37.5 25.2061 36.8564 24.5625 36.0625 24.5625Z" fill="#FFF7FE"/>
</svg>
