<svg width="50" height="50" viewBox="0 0 50 50" fill="none" xmlns="http://www.w3.org/2000/svg">
<rect x="0.5" y="0.5" width="49" height="49" rx="24.5" fill="white"/>
<rect x="0.5" y="0.5" width="49" height="49" rx="24.5" stroke="#AC08A1"/>
<path d="M30.8737 19.7792C30.7464 19.664 30.5806 19.6026 30.4102 19.6077C30.2398 19.6128 30.0778 19.6839 29.9575 19.8065C29.8371 19.9291 29.7675 20.0938 29.763 20.2669C29.7585 20.4399 29.8194 20.6081 29.9331 20.737C31.0446 21.8686 31.6687 23.4017 31.6687 25C31.6687 26.5983 31.0446 28.1314 29.9331 29.263C29.8654 29.3244 29.8107 29.3991 29.7724 29.4826C29.7341 29.5661 29.7129 29.6567 29.7102 29.7488C29.7076 29.8409 29.7234 29.9326 29.7569 30.0183C29.7903 30.104 29.8406 30.1818 29.9047 30.247C29.9687 30.3123 30.0452 30.3636 30.1295 30.3978C30.2138 30.432 30.304 30.4483 30.3947 30.4459C30.4854 30.4435 30.5747 30.4222 30.657 30.3836C30.7394 30.3449 30.8131 30.2895 30.8737 30.2209C32.2352 28.8352 32.9999 26.9576 32.9999 25C32.9999 23.0425 32.2352 21.1648 30.8737 19.7792Z" fill="#AC08A1"/>
<path d="M29.0687 21.8128C29.0072 21.7481 28.9336 21.6965 28.8522 21.661C28.7708 21.6255 28.6833 21.6068 28.5947 21.606C28.5061 21.6052 28.4183 21.6223 28.3363 21.6564C28.2544 21.6905 28.1799 21.7408 28.1172 21.8044C28.0546 21.868 28.0051 21.9436 27.9715 22.0269C27.938 22.1101 27.9211 22.1993 27.9219 22.2893C27.9227 22.3792 27.9411 22.4681 27.976 22.5507C28.011 22.6334 28.0618 22.7081 28.1255 22.7706C28.7069 23.3629 29.0334 24.1651 29.0334 25.0014C29.0334 25.8377 28.7069 26.6399 28.1255 27.2321C28.0618 27.2946 28.011 27.3694 27.976 27.452C27.9411 27.5347 27.9227 27.6235 27.9219 27.7135C27.9211 27.8034 27.938 27.8926 27.9715 27.9759C28.0051 28.0591 28.0546 28.1348 28.1172 28.1984C28.1799 28.262 28.2544 28.3123 28.3363 28.3463C28.4183 28.3804 28.5061 28.3976 28.5947 28.3968C28.6833 28.396 28.7708 28.3773 28.8522 28.3418C28.9336 28.3063 29.0072 28.2547 29.0687 28.19C29.9001 27.3436 30.3669 26.1969 30.3669 25.0014C30.3669 23.8059 29.9001 22.6592 29.0687 21.8128Z" fill="#AC08A1"/>
<path d="M26.2178 17.0112C24.191 17.3975 22.3878 18.5599 21.181 20.2581H20.3352C19.451 20.2591 18.6033 20.6163 17.978 21.2513C17.3528 21.8863 17.0011 22.7472 17 23.6452V26.3548C17.0011 27.2528 17.3528 28.1137 17.978 28.7487C18.6033 29.3837 19.451 29.7409 20.3352 29.7419H21.1816C22.3882 31.4402 24.1911 32.6026 26.2178 32.9888C26.3139 33.0068 26.4128 33.0031 26.5074 32.9779C26.602 32.9528 26.6901 32.9068 26.7652 32.8432C26.8404 32.7797 26.9009 32.7002 26.9424 32.6102C26.9839 32.5203 27.0055 32.4222 27.0055 32.3229V17.6771C27.0055 17.5778 26.9839 17.4797 26.9424 17.3898C26.9009 17.2998 26.8404 17.2203 26.7652 17.1568C26.6901 17.0932 26.602 17.0472 26.5074 17.0221C26.4128 16.9969 26.3139 16.9932 26.2178 17.0112Z" fill="#AC08A1"/>
</svg>
