<svg width="20" height="22" viewBox="0 0 20 22" fill="none" xmlns="http://www.w3.org/2000/svg">
<path d="M1.68104 21.7802C2.17744 21.996 2.72625 22.0546 3.25588 21.9484C3.78551 21.8421 4.27137 21.576 4.65008 21.1846L9.99999 15.7715L15.3499 21.1846C15.5994 21.4421 15.8965 21.6467 16.2242 21.7865C16.5519 21.9264 16.9036 21.9987 17.259 21.9994C17.6242 21.9983 17.9857 21.9238 18.3226 21.7802C18.823 21.5741 19.2508 21.2194 19.55 20.7622C19.8492 20.305 20.006 19.7667 19.9998 19.2174V4.62425C19.9984 3.39827 19.519 2.22293 18.6669 1.35603C17.8148 0.489136 16.6595 0.00146853 15.4544 0L4.54554 0C3.34047 0.00146853 2.18517 0.489136 1.33306 1.35603C0.480952 2.22293 0.0016018 3.39827 0.000158312 4.62425V19.2174C-0.00570811 19.7671 0.151589 20.3057 0.451481 20.763C0.751374 21.2202 1.1799 21.5747 1.68104 21.7802Z" fill="#AC08A1"/>
</svg>
