<svg width="17" height="17" viewBox="0 0 17 17" fill="none" xmlns="http://www.w3.org/2000/svg">
<path d="M0.492848 5.20719C0.102321 4.81667 0.102318 4.18351 0.49284 3.79298C0.883362 3.40245 1.51653 3.40245 1.90705 3.79297L1.19995 4.50008L0.492848 5.20719ZM9.19995 12.5L8.49285 13.2071L0.492848 5.20719L1.19995 4.50008L1.90705 3.79297L9.90705 11.7929L9.19995 12.5Z" fill="black"/>
<path d="M0.492848 5.20719C0.102321 4.81667 0.102318 4.18351 0.49284 3.79298C0.883362 3.40245 1.51653 3.40245 1.90705 3.79297L1.19995 4.50008L0.492848 5.20719ZM9.19995 12.5L8.49285 13.2071L0.492848 5.20719L1.19995 4.50008L1.90705 3.79297L9.90705 11.7929L9.19995 12.5Z" fill="#AC08A1"/>
<path d="M16.5072 5.20719C16.8977 4.81667 16.8977 4.18351 16.5072 3.79298C16.1166 3.40245 15.4835 3.40245 15.0929 3.79297L15.8 4.50008L16.5072 5.20719ZM7.80005 12.5L8.50715 13.2071L16.5072 5.20719L15.8 4.50008L15.0929 3.79297L7.09295 11.7929L7.80005 12.5Z" fill="black"/>
<path d="M16.5072 5.20719C16.8977 4.81667 16.8977 4.18351 16.5072 3.79298C16.1166 3.40245 15.4835 3.40245 15.0929 3.79297L15.8 4.50008L16.5072 5.20719ZM7.80005 12.5L8.50715 13.2071L16.5072 5.20719L15.8 4.50008L15.0929 3.79297L7.09295 11.7929L7.80005 12.5Z" fill="#AC08A1"/>
</svg>
