<svg width="14" height="13" viewBox="0 0 14 13" fill="none" xmlns="http://www.w3.org/2000/svg">
<path d="M13.4156 8.66667C13.3253 8.66666 13.2362 8.64719 13.1554 8.60979L11.9889 8.06813C11.8504 8.00391 11.7451 7.89125 11.6961 7.75492C11.6471 7.6186 11.6584 7.46978 11.7276 7.34121C11.7967 7.21263 11.918 7.11483 12.0648 7.06933C12.2116 7.02382 12.3719 7.03433 12.5103 7.09854L13.6769 7.64021C13.7946 7.6947 13.8891 7.78456 13.9449 7.8952C14.0007 8.00583 14.0146 8.13073 13.9844 8.24962C13.9541 8.36852 13.8814 8.47442 13.7782 8.55012C13.6749 8.62583 13.5471 8.6669 13.4156 8.66667ZM12.5097 3.7375L13.6763 3.19583C13.8148 3.13162 13.9201 3.01896 13.9691 2.88263C14.0181 2.74631 14.0068 2.59749 13.9376 2.46892C13.8685 2.34034 13.7472 2.24254 13.6004 2.19703C13.4536 2.15153 13.2933 2.16203 13.1549 2.22625L11.9883 2.76792C11.8498 2.83213 11.7445 2.94479 11.6955 3.08112C11.6465 3.21744 11.6578 3.36626 11.727 3.49483C11.7961 3.62341 11.9174 3.72121 12.0642 3.76672C12.211 3.81222 12.3713 3.80172 12.5097 3.7375ZM13.9989 5.41667C13.9989 5.27301 13.9374 5.13523 13.828 5.03365C13.7186 4.93207 13.5703 4.875 13.4156 4.875H12.249C12.0943 4.875 11.946 4.93207 11.8366 5.03365C11.7272 5.13523 11.6657 5.27301 11.6657 5.41667C11.6657 5.56033 11.7272 5.6981 11.8366 5.79968C11.946 5.90127 12.0943 5.95833 12.249 5.95833H13.4156C13.5703 5.95833 13.7186 5.90127 13.828 5.79968C13.9374 5.6981 13.9989 5.56033 13.9989 5.41667ZM10.4992 10.2917V0.541667C10.4992 0.398008 10.4377 0.260233 10.3283 0.158651C10.2189 0.0570683 10.0706 0 9.91587 0C9.76117 0 9.61281 0.0570683 9.50342 0.158651C9.39403 0.260233 9.33258 0.398008 9.33258 0.541667C9.33258 2.13904 7.82595 2.70833 6.41615 2.70833H2.33314C1.71436 2.70833 1.12091 2.93661 0.683362 3.34294C0.245813 3.74926 0 4.30036 0 4.875L0 5.95833C0 6.53297 0.245813 7.08407 0.683362 7.4904C1.12091 7.89673 1.71436 8.125 2.33314 8.125H6.41615C7.82595 8.125 9.33258 8.69429 9.33258 10.2917C9.33258 10.4353 9.39403 10.5731 9.50342 10.6747C9.61281 10.7763 9.76117 10.8333 9.91587 10.8333C10.0706 10.8333 10.2189 10.7763 10.3283 10.6747C10.4377 10.5731 10.4992 10.4353 10.4992 10.2917ZM4.77478 9.20833H2.33314C2.06158 9.20733 1.79105 9.17697 1.52704 9.11788L2.98526 12.1415C3.10773 12.397 3.30734 12.6141 3.55993 12.7665C3.81253 12.9189 4.10727 13 4.40848 13C4.64812 12.9997 4.88388 12.9437 5.09425 12.8371C5.30463 12.7306 5.48295 12.5768 5.61295 12.3898C5.74295 12.2029 5.8205 11.9887 5.83853 11.7668C5.85657 11.5449 5.81452 11.3223 5.71621 11.1193L4.77478 9.20833Z" fill="#C4C4C4"/>
</svg>
