<svg width="17" height="17" viewBox="0 0 17 17" fill="none" xmlns="http://www.w3.org/2000/svg">
<path d="M11.7928 0.492604C12.1833 0.102077 12.8165 0.102074 13.207 0.492596C13.5975 0.883118 13.5975 1.51628 13.207 1.90681L12.4999 1.19971L11.7928 0.492604ZM4.5 9.19971L3.79289 8.4926L11.7928 0.492604L12.4999 1.19971L13.207 1.90681L5.20711 9.90681L4.5 9.19971Z" fill="black"/>
<path d="M11.7928 0.492604C12.1833 0.102077 12.8165 0.102074 13.207 0.492596C13.5975 0.883118 13.5975 1.51628 13.207 1.90681L12.4999 1.19971L11.7928 0.492604ZM4.5 9.19971L3.79289 8.4926L11.7928 0.492604L12.4999 1.19971L13.207 1.90681L5.20711 9.90681L4.5 9.19971Z" fill="#C4C4C4"/>
<path d="M11.7928 16.5069C12.1833 16.8974 12.8165 16.8974 13.207 16.5069C13.5975 16.1164 13.5975 15.4832 13.207 15.0927L12.4999 15.7998L11.7928 16.5069ZM4.5 7.7998L3.79289 8.50691L11.7928 16.5069L12.4999 15.7998L13.207 15.0927L5.20711 7.0927L4.5 7.7998Z" fill="black"/>
<path d="M11.7928 16.5069C12.1833 16.8974 12.8165 16.8974 13.207 16.5069C13.5975 16.1164 13.5975 15.4832 13.207 15.0927L12.4999 15.7998L11.7928 16.5069ZM4.5 7.7998L3.79289 8.50691L11.7928 16.5069L12.4999 15.7998L13.207 15.0927L5.20711 7.0927L4.5 7.7998Z" fill="#C4C4C4"/>
</svg>
