<svg width="17" height="17" viewBox="0 0 17 17" fill="none" xmlns="http://www.w3.org/2000/svg">
<g clip-path="url(#clip0_626_7393)">
<path d="M5.20719 0.492604C4.81667 0.102077 4.18351 0.102074 3.79298 0.492596C3.40245 0.883118 3.40245 1.51628 3.79297 1.90681L4.50008 1.19971L5.20719 0.492604ZM12.5 9.19971L13.2071 8.4926L5.20719 0.492604L4.50008 1.19971L3.79297 1.90681L11.7929 9.90681L12.5 9.19971Z" fill="black"/>
<path d="M5.20719 0.492604C4.81667 0.102077 4.18351 0.102074 3.79298 0.492596C3.40245 0.883118 3.40245 1.51628 3.79297 1.90681L4.50008 1.19971L5.20719 0.492604ZM12.5 9.19971L13.2071 8.4926L5.20719 0.492604L4.50008 1.19971L3.79297 1.90681L11.7929 9.90681L12.5 9.19971Z" fill="#C4C4C4"/>
<path d="M5.20719 16.5069C4.81667 16.8974 4.18351 16.8974 3.79298 16.5069C3.40245 16.1164 3.40245 15.4832 3.79297 15.0927L4.50008 15.7998L5.20719 16.5069ZM12.5 7.7998L13.2071 8.50691L5.20719 16.5069L4.50008 15.7998L3.79297 15.0927L11.7929 7.0927L12.5 7.7998Z" fill="black"/>
<path d="M5.20719 16.5069C4.81667 16.8974 4.18351 16.8974 3.79298 16.5069C3.40245 16.1164 3.40245 15.4832 3.79297 15.0927L4.50008 15.7998L5.20719 16.5069ZM12.5 7.7998L13.2071 8.50691L5.20719 16.5069L4.50008 15.7998L3.79297 15.0927L11.7929 7.0927L12.5 7.7998Z" fill="#C4C4C4"/>
</g>
<defs>
<clipPath id="clip0_626_7393">
<rect width="17" height="17" fill="white"/>
</clipPath>
</defs>
</svg>
