<svg width="17" height="17" viewBox="0 0 17 17" fill="none" xmlns="http://www.w3.org/2000/svg">
<path d="M0.492848 11.7928C0.102321 12.1833 0.102318 12.8165 0.49284 13.207C0.883362 13.5975 1.51653 13.5975 1.90705 13.207L1.19995 12.4999L0.492848 11.7928ZM9.19995 4.5L8.49285 3.79289L0.492848 11.7928L1.19995 12.4999L1.90705 13.207L9.90705 5.20711L9.19995 4.5Z" fill="black"/>
<path d="M0.492848 11.7928C0.102321 12.1833 0.102318 12.8165 0.49284 13.207C0.883362 13.5975 1.51653 13.5975 1.90705 13.207L1.19995 12.4999L0.492848 11.7928ZM9.19995 4.5L8.49285 3.79289L0.492848 11.7928L1.19995 12.4999L1.90705 13.207L9.90705 5.20711L9.19995 4.5Z" fill="#C4C4C4"/>
<path d="M16.5072 11.7928C16.8977 12.1833 16.8977 12.8165 16.5072 13.207C16.1166 13.5975 15.4835 13.5975 15.0929 13.207L15.8 12.4999L16.5072 11.7928ZM7.80005 4.5L8.50715 3.79289L16.5072 11.7928L15.8 12.4999L15.0929 13.207L7.09295 5.20711L7.80005 4.5Z" fill="black"/>
<path d="M16.5072 11.7928C16.8977 12.1833 16.8977 12.8165 16.5072 13.207C16.1166 13.5975 15.4835 13.5975 15.0929 13.207L15.8 12.4999L16.5072 11.7928ZM7.80005 4.5L8.50715 3.79289L16.5072 11.7928L15.8 12.4999L15.0929 13.207L7.09295 5.20711L7.80005 4.5Z" fill="#C4C4C4"/>
</svg>
