<svg width="16" height="17" viewBox="0 0 16 17" fill="none" xmlns="http://www.w3.org/2000/svg">
<path d="M1.34483 16.8301C1.74195 16.9969 2.181 17.0422 2.6047 16.9601C3.02841 16.878 3.4171 16.6723 3.72006 16.3699L7.99999 12.187L12.2799 16.3699C12.4795 16.5689 12.7172 16.727 12.9794 16.835C13.2415 16.9431 13.5229 16.999 13.8072 16.9995C14.0994 16.9987 14.3886 16.9411 14.6581 16.8301C15.0584 16.6709 15.4006 16.3968 15.64 16.0435C15.8794 15.6902 16.0048 15.2742 15.9999 14.8498V3.57328C15.9987 2.62594 15.6152 1.71772 14.9335 1.04784C14.2518 0.377969 13.3276 0.00113477 12.3636 0L3.63643 0C2.67238 0.00113477 1.74814 0.377969 1.06645 1.04784C0.384762 1.71772 0.00128144 2.62594 0.00012665 3.57328V14.8498C-0.00456649 15.2746 0.121271 15.6908 0.361185 16.0441C0.601099 16.3974 0.943923 16.6714 1.34483 16.8301Z" fill="#AC08A1"/>
</svg>
