<svg width="14" height="17" viewBox="0 0 14 17" fill="none" xmlns="http://www.w3.org/2000/svg">
<path d="M1.17673 16.8301C1.52421 16.9969 1.90837 17.0422 2.27912 16.9601C2.64986 16.878 2.98996 16.6723 3.25506 16.3699L6.99999 12.187L10.7449 16.3699C10.9195 16.5689 11.1276 16.727 11.3569 16.835C11.5863 16.9431 11.8325 16.999 12.0813 16.9995C12.337 16.9987 12.59 16.9411 12.8258 16.8301C13.1761 16.6709 13.4756 16.3968 13.685 16.0435C13.8945 15.6902 14.0042 15.2742 13.9999 14.8498V3.57328C13.9989 2.62594 13.6633 1.71772 13.0668 1.04784C12.4704 0.377969 11.6617 0.00113477 10.8181 0L3.18188 0C2.33833 0.00113477 1.52962 0.377969 0.933144 1.04784C0.336666 1.71772 0.00112126 2.62594 0.000110818 3.57328V14.8498C-0.00399568 15.2746 0.106112 15.6908 0.316037 16.0441C0.525962 16.3974 0.825933 16.6714 1.17673 16.8301V16.8301Z" fill="#AC08A1"/>
</svg>
