<svg width="17" height="16" viewBox="0 0 17 16" fill="none" xmlns="http://www.w3.org/2000/svg">
<path d="M14.875 11.6367H7.08333V13.0912C7.08333 13.2841 7.00871 13.4691 6.87587 13.6054C6.74303 13.7418 6.56286 13.8184 6.375 13.8184C6.18714 13.8184 6.00697 13.7418 5.87413 13.6054C5.74129 13.4691 5.66667 13.2841 5.66667 13.0912V11.6367H4.25V13.0912C4.25 13.2841 4.17537 13.4691 4.04253 13.6054C3.9097 13.7418 3.72953 13.8184 3.54167 13.8184C3.3538 13.8184 3.17364 13.7418 3.0408 13.6054C2.90796 13.4691 2.83333 13.2841 2.83333 13.0912V11.6367H2.125C1.56141 11.6367 1.02091 11.8666 0.622398 12.2757C0.223883 12.6849 0 13.2398 0 13.8184C0 14.3971 0.223883 14.952 0.622398 15.3612C1.02091 15.7703 1.56141 16.0002 2.125 16.0002H14.875C15.4386 16.0002 15.9791 15.7703 16.3776 15.3612C16.7761 14.952 17 14.3971 17 13.8184C17 13.2398 16.7761 12.6849 16.3776 12.2757C15.9791 11.8666 15.4386 11.6367 14.875 11.6367Z" fill="#AC08A1"/>
<path d="M14.875 5.81836H7.08333V7.27284C7.08333 7.46572 7.00871 7.6507 6.87587 7.78708C6.74303 7.92347 6.56286 8.00009 6.375 8.00009C6.18714 8.00009 6.00697 7.92347 5.87413 7.78708C5.74129 7.6507 5.66667 7.46572 5.66667 7.27284V5.81836H4.25V7.27284C4.25 7.46572 4.17537 7.6507 4.04253 7.78708C3.9097 7.92347 3.72953 8.00009 3.54167 8.00009C3.3538 8.00009 3.17364 7.92347 3.0408 7.78708C2.90796 7.6507 2.83333 7.46572 2.83333 7.27284V5.81836H2.125C1.56141 5.81836 1.02091 6.04822 0.622398 6.45737C0.223883 6.86653 0 7.42146 0 8.00009C0 8.57872 0.223883 9.13365 0.622398 9.5428C1.02091 9.95195 1.56141 10.1818 2.125 10.1818H14.875C15.4386 10.1818 15.9791 9.95195 16.3776 9.5428C16.7761 9.13365 17 8.57872 17 8.00009C17 7.42146 16.7761 6.86653 16.3776 6.45737C15.9791 6.04822 15.4386 5.81836 14.875 5.81836Z" fill="#AC08A1"/>
<path d="M14.875 0H7.08333V1.45448C7.08333 1.64736 7.00871 1.83234 6.87587 1.96872C6.74303 2.10511 6.56286 2.18173 6.375 2.18173C6.18714 2.18173 6.00697 2.10511 5.87413 1.96872C5.74129 1.83234 5.66667 1.64736 5.66667 1.45448V0H4.25V1.45448C4.25 1.64736 4.17537 1.83234 4.04253 1.96872C3.9097 2.10511 3.72953 2.18173 3.54167 2.18173C3.3538 2.18173 3.17364 2.10511 3.0408 1.96872C2.90796 1.83234 2.83333 1.64736 2.83333 1.45448V0H2.125C1.56141 8.62226e-09 1.02091 0.22986 0.622398 0.639013C0.223883 1.04817 0 1.6031 0 2.18173C0 2.76036 0.223883 3.31529 0.622398 3.72444C1.02091 4.13359 1.56141 4.36345 2.125 4.36345H14.875C15.4386 4.36345 15.9791 4.13359 16.3776 3.72444C16.7761 3.31529 17 2.76036 17 2.18173C17 1.6031 16.7761 1.04817 16.3776 0.639013C15.9791 0.22986 15.4386 8.62226e-09 14.875 0V0Z" fill="#AC08A1"/>
</svg>
