<svg width="16" height="16" viewBox="0 0 16 16" fill="none" xmlns="http://www.w3.org/2000/svg">
<g clip-path="url(#clip0_626_7384)">
<path d="M8 0C12.4183 0 16 3.58172 16 8C16 12.4183 12.4183 16 8 16C3.58172 16 0 12.4183 0 8C0 3.58172 3.58172 0 8 0ZM11.5303 4.46973C11.2374 4.17686 10.7626 4.17685 10.4697 4.46973L8 6.93945L5.53027 4.46973C5.2374 4.17685 4.76263 4.17686 4.46973 4.46973C4.17685 4.7626 4.17686 5.23737 4.46973 5.53027L6.93945 8L4.4707 10.4697C4.17783 10.7626 4.17779 11.2374 4.4707 11.5303C4.76362 11.8231 5.2384 11.8232 5.53125 11.5303L8 9.06055L10.4688 11.5303C10.7616 11.8232 11.2364 11.8231 11.5293 11.5303C11.8222 11.2374 11.8222 10.7626 11.5293 10.4697L9.05957 8L11.5303 5.53027C11.8231 5.23737 11.8232 4.7626 11.5303 4.46973Z" fill="#9D9D9D"/>
</g>
<defs>
<clipPath id="clip0_626_7384">
<rect width="16" height="16" fill="white"/>
</clipPath>
</defs>
</svg>
