<svg width="13" height="13" viewBox="0 0 13 13" fill="none" xmlns="http://www.w3.org/2000/svg">
<path d="M6.5 0C5.21442 0 3.95772 0.381218 2.8888 1.09545C1.81988 1.80968 0.986755 2.82484 0.494786 4.01256C0.00281636 5.20028 -0.125905 6.50721 0.124899 7.76809C0.375702 9.02896 0.994767 10.1872 1.90381 11.0962C2.81285 12.0052 3.97104 12.6243 5.23191 12.8751C6.49279 13.1259 7.79972 12.9972 8.98744 12.5052C10.1752 12.0132 11.1903 11.1801 11.9046 10.1112C12.6188 9.04229 13 7.78558 13 6.5C12.9981 4.77666 12.3127 3.12445 11.0941 1.90586C9.87555 0.687282 8.22334 0.00186392 6.5 0V0ZM6.5 10.8333C6.39287 10.8333 6.28814 10.8016 6.19907 10.742C6.10999 10.6825 6.04056 10.5979 5.99957 10.499C5.95857 10.4 5.94784 10.2911 5.96874 10.186C5.98964 10.0809 6.04123 9.9844 6.11699 9.90865C6.19274 9.8329 6.28926 9.78131 6.39433 9.76041C6.4994 9.73951 6.60831 9.75023 6.70729 9.79123C6.80627 9.83223 6.89086 9.90165 6.95038 9.99073C7.0099 10.0798 7.04167 10.1845 7.04167 10.2917C7.04167 10.4353 6.9846 10.5731 6.88302 10.6747C6.78144 10.7763 6.64366 10.8333 6.5 10.8333ZM7.54542 6.77408C7.38557 6.87403 7.25486 7.0143 7.16643 7.1808C7.078 7.34729 7.03497 7.53414 7.04167 7.72254V8.125C7.04167 8.26866 6.9846 8.40643 6.88302 8.50801C6.78144 8.6096 6.64366 8.66667 6.5 8.66667C6.35634 8.66667 6.21857 8.6096 6.11699 8.50801C6.0154 8.40643 5.95834 8.26866 5.95834 8.125V7.72254C5.95033 7.34035 6.04477 6.96299 6.23184 6.62962C6.41891 6.29624 6.69179 6.01902 7.02217 5.82671C7.2223 5.71648 7.38246 5.5458 7.47974 5.33907C7.57703 5.13233 7.60646 4.90013 7.56384 4.67567C7.52163 4.46182 7.41663 4.2654 7.26226 4.11151C7.10789 3.95762 6.91115 3.85325 6.69717 3.81171C6.54102 3.78281 6.38042 3.78859 6.22675 3.82864C6.07308 3.8687 5.9301 3.94205 5.80792 4.0435C5.68575 4.14495 5.58737 4.27201 5.51976 4.41571C5.45215 4.5594 5.41695 4.7162 5.41667 4.875C5.41667 5.01866 5.3596 5.15643 5.25802 5.25802C5.15644 5.3596 5.01866 5.41667 4.875 5.41667C4.73134 5.41667 4.59357 5.3596 4.49199 5.25802C4.3904 5.15643 4.33334 5.01866 4.33334 4.875C4.33347 4.49286 4.43467 4.11755 4.62668 3.78714C4.81868 3.45674 5.09466 3.18299 5.42661 2.99368C5.75856 2.80436 6.13468 2.7062 6.51681 2.70917C6.89894 2.71213 7.27349 2.81611 7.60246 3.01055C7.93143 3.205 8.20313 3.48299 8.38999 3.81633C8.57684 4.14967 8.67221 4.52651 8.66642 4.90861C8.66063 5.2907 8.55388 5.66447 8.35701 5.992C8.16013 6.31953 7.88014 6.58916 7.54542 6.77354V6.77408Z" fill="#C4C4C4"/>
</svg>
