<svg width="20" height="20" viewBox="0 0 20 20" fill="none" xmlns="http://www.w3.org/2000/svg">
<g clip-path="url(#clip0_701_5190)">
<path d="M19.5 15.167C19.4972 17.4671 17.6329 19.3312 15.333 19.334H3.66699C1.36702 19.3312 -0.497152 17.4671 -0.5 15.167V7.65918L19.5 7.56641V15.167ZM10.4268 9.33398C10.1994 9.33404 9.98102 9.4246 9.82031 9.58691C9.65963 9.74923 9.56932 9.96972 9.56934 10.1992C9.56939 10.4288 9.6605 10.6493 9.82129 10.8115L11.2148 12.2188H6.19043C5.96312 12.2188 5.74472 12.3094 5.58398 12.4717C5.42325 12.634 5.33301 12.8545 5.33301 13.084C5.33305 13.3133 5.4235 13.5331 5.58398 13.6953C5.74472 13.8576 5.96312 13.9492 6.19043 13.9492H11.2148L9.82129 15.3564C9.6605 15.5187 9.56939 15.7392 9.56934 15.9688C9.56939 16.198 9.65988 16.4179 9.82031 16.5801C9.98102 16.7424 10.1994 16.8339 10.4268 16.834C10.654 16.834 10.8724 16.7433 11.0332 16.5811L13.082 14.5117C13.4563 14.1327 13.666 13.6192 13.666 13.084C13.666 12.5488 13.4563 12.0353 13.082 11.6562L11.0332 9.58691C10.8724 9.42467 10.654 9.33396 10.4268 9.33398ZM5.77344 1C6.16123 1.00034 6.54349 1.0908 6.89062 1.26367L9.52051 2.58301C9.63676 2.63867 9.76469 2.66785 9.89355 2.66699H15.333C17.2715 2.67086 18.9515 4.01104 19.3857 5.90039L-0.5 5.99316V5.16699C-0.497227 2.86684 1.36701 1.00273 3.66699 1H5.77344Z" fill="#F79DFF"/>
</g>
<defs>
<clipPath id="clip0_701_5190">
<rect width="20" height="20" fill="white"/>
</clipPath>
</defs>
</svg>
