<svg width="16" height="16" viewBox="0 0 16 16" fill="none" xmlns="http://www.w3.org/2000/svg">
<circle cx="8" cy="8" r="8" fill="#9D9D9D"/>
<path d="M8 3.84961C8.35898 3.84961 8.65039 4.14102 8.65039 4.5V7.34961H11.5C11.859 7.34961 12.1504 7.64102 12.1504 8C12.1504 8.35898 11.859 8.65039 11.5 8.65039H8.65039V11.5C8.65039 11.859 8.35898 12.1504 8 12.1504C7.64102 12.1504 7.34961 11.859 7.34961 11.5V8.65039H4.5C4.14102 8.65039 3.84961 8.35898 3.84961 8C3.84961 7.64102 4.14102 7.34961 4.5 7.34961H7.34961V4.5C7.34961 4.14102 7.64102 3.84961 8 3.84961Z" fill="white" stroke="white" stroke-width="0.3"/>
</svg>
