<svg width="12" height="12" viewBox="0 0 12 12" fill="none" xmlns="http://www.w3.org/2000/svg">
<g clip-path="url(#clip0_626_7442)">
<path d="M8.5 7.00001C8.5 7.13262 8.44732 7.2598 8.35355 7.35356C8.25979 7.44733 8.13261 7.50001 8 7.50001H4C3.86739 7.50001 3.74021 7.44733 3.64645 7.35356C3.55268 7.2598 3.5 7.13262 3.5 7.00001C3.5 6.8674 3.55268 6.74023 3.64645 6.64646C3.74021 6.55269 3.86739 6.50001 4 6.50001H8C8.13261 6.50001 8.25979 6.55269 8.35355 6.64646C8.44732 6.74023 8.5 6.8674 8.5 7.00001ZM6.5 8.50001H4C3.86739 8.50001 3.74021 8.55269 3.64645 8.64646C3.55268 8.74023 3.5 8.8674 3.5 9.00001C3.5 9.13262 3.55268 9.2598 3.64645 9.35357C3.74021 9.44733 3.86739 9.50001 4 9.50001H6.5C6.63261 9.50001 6.75979 9.44733 6.85355 9.35357C6.94732 9.2598 7 9.13262 7 9.00001C7 8.8674 6.94732 8.74023 6.85355 8.64646C6.75979 8.55269 6.63261 8.50001 6.5 8.50001ZM11 5.24251V9.50001C10.9992 10.1628 10.7356 10.7982 10.2669 11.2669C9.79822 11.7356 9.1628 11.9992 8.5 12H3.5C2.8372 11.9992 2.20178 11.7356 1.73311 11.2669C1.26444 10.7982 1.00079 10.1628 1 9.50001V2.50001C1.00079 1.83721 1.26444 1.20179 1.73311 0.733121C2.20178 0.264452 2.8372 0.000805453 3.5 1.15243e-05H5.7575C6.21731 -0.00117194 6.67279 0.0888054 7.09761 0.264741C7.52243 0.440677 7.90816 0.699081 8.2325 1.02501L9.9745 2.76801C10.3006 3.09213 10.5592 3.47774 10.7352 3.9025C10.9112 4.32726 11.0012 4.78272 11 5.24251V5.24251ZM7.5255 1.73201C7.36814 1.57959 7.19147 1.44847 7 1.34201V3.50001C7 3.63262 7.05268 3.7598 7.14645 3.85356C7.24021 3.94733 7.36739 4.00001 7.5 4.00001H9.658C9.55148 3.80861 9.42018 3.63208 9.2675 3.47501L7.5255 1.73201ZM10 5.24251C10 5.16001 9.984 5.08101 9.9765 5.00001H7.5C7.10218 5.00001 6.72064 4.84198 6.43934 4.56067C6.15804 4.27937 6 3.89784 6 3.50001V1.02351C5.919 1.01601 5.8395 1.00001 5.7575 1.00001H3.5C3.10218 1.00001 2.72064 1.15805 2.43934 1.43935C2.15804 1.72066 2 2.10219 2 2.50001V9.50001C2 9.89784 2.15804 10.2794 2.43934 10.5607C2.72064 10.842 3.10218 11 3.5 11H8.5C8.89782 11 9.27936 10.842 9.56066 10.5607C9.84196 10.2794 10 9.89784 10 9.50001V5.24251Z" fill="#AC08A1"/>
</g>
<defs>
<clipPath id="clip0_626_7442">
<rect width="12" height="12" fill="white"/>
</clipPath>
</defs>
</svg>
