<svg width="12" height="12" viewBox="0 0 12 12" fill="none" xmlns="http://www.w3.org/2000/svg">
<g clip-path="url(#clip0_626_7439)">
<path d="M11.9104 5.59048C11.4274 4.54284 10.7198 3.61425 9.83794 2.87048L11.3539 1.35448L10.6464 0.646484L8.99994 2.29148C8.08862 1.76434 7.05269 1.49103 5.99994 1.49998C2.24994 1.49998 0.528436 4.63048 0.0894356 5.59048C0.0305048 5.71914 0 5.85898 0 6.00048C0 6.14199 0.0305048 6.28183 0.0894356 6.41048C0.572504 7.45813 1.28005 8.38672 2.16194 9.13048L0.646436 10.6465L1.35344 11.3535L2.99994 9.70848C3.91125 10.2356 4.94718 10.5089 5.99994 10.5C9.74994 10.5 11.4714 7.36948 11.9104 6.40948C11.9693 6.28098 11.9997 6.14131 11.9997 5.99998C11.9997 5.85866 11.9693 5.71899 11.9104 5.59048V5.59048ZM0.999936 6.00548C1.37494 5.18298 2.84644 2.49998 5.99994 2.49998C6.78473 2.4954 7.55926 2.67848 8.25894 3.03398L7.37644 3.91648C6.8964 3.59779 6.32089 3.45498 5.74755 3.51231C5.17422 3.56963 4.63837 3.82355 4.23094 4.23099C3.82351 4.63842 3.56958 5.17426 3.51226 5.7476C3.45493 6.32094 3.59774 6.89645 3.91644 7.37648L2.87694 8.41598C2.07712 7.76468 1.43537 6.94052 0.999936 6.00548V6.00548ZM7.49994 5.99998C7.49994 6.39781 7.3419 6.77934 7.0606 7.06064C6.77929 7.34195 6.39776 7.49998 5.99994 7.49998C5.77719 7.49912 5.55754 7.44784 5.35744 7.34998L7.34994 5.35748C7.44779 5.55758 7.49907 5.77724 7.49994 5.99998V5.99998ZM4.49994 5.99998C4.49994 5.60216 4.65797 5.22063 4.93928 4.93932C5.22058 4.65802 5.60211 4.49998 5.99994 4.49998C6.22268 4.50085 6.44234 4.55213 6.64244 4.64998L4.64994 6.64248C4.55208 6.44239 4.5008 6.22273 4.49994 5.99998ZM5.99994 9.49998C5.21514 9.50457 4.44061 9.32148 3.74094 8.96598L4.62344 8.08348C5.10347 8.40218 5.67898 8.54499 6.25232 8.48766C6.82566 8.43034 7.3615 8.17642 7.76894 7.76898C8.17637 7.36155 8.43029 6.8257 8.48761 6.25237C8.54494 5.67903 8.40214 5.10352 8.08344 4.62348L9.12244 3.58448C9.92382 4.23639 10.5659 5.06251 10.9999 5.99998C10.6179 6.82848 9.14594 9.49998 5.99994 9.49998Z" fill="#C4C4C4"/>
</g>
<defs>
<clipPath id="clip0_626_7439">
<rect width="12" height="12" fill="white"/>
</clipPath>
</defs>
</svg>
