<svg width="12" height="12" viewBox="0 0 12 12" fill="none" xmlns="http://www.w3.org/2000/svg">
<g clip-path="url(#clip0_626_7437)">
<path d="M11.6355 4.70964C10.86 3.44664 9.09603 1.32764 6.00003 1.32764C2.90403 1.32764 1.14003 3.44664 0.364526 4.70964C0.12479 5.09739 -0.00219727 5.54426 -0.00219727 6.00014C-0.00219727 6.45602 0.12479 6.90288 0.364526 7.29064C1.14003 8.55364 2.90403 10.6726 6.00003 10.6726C9.09603 10.6726 10.86 8.55364 11.6355 7.29064C11.8753 6.90288 12.0022 6.45602 12.0022 6.00014C12.0022 5.54426 11.8753 5.09739 11.6355 4.70964V4.70964ZM10.783 6.76714C10.117 7.85014 8.60953 9.67264 6.00003 9.67264C3.39053 9.67264 1.88303 7.85014 1.21703 6.76714C1.07459 6.53666 0.999151 6.27107 0.999151 6.00014C0.999151 5.7292 1.07459 5.46361 1.21703 5.23314C1.88303 4.15014 3.39053 2.32764 6.00003 2.32764C8.60953 2.32764 10.117 4.14814 10.783 5.23314C10.9255 5.46361 11.0009 5.7292 11.0009 6.00014C11.0009 6.27107 10.9255 6.53666 10.783 6.76714V6.76714Z" fill="#AC08A1"/>
<path d="M6 3.5C5.50555 3.5 5.0222 3.64662 4.61108 3.92133C4.19995 4.19603 3.87952 4.58648 3.6903 5.04329C3.50108 5.50011 3.45157 6.00277 3.54804 6.48773C3.6445 6.97268 3.8826 7.41814 4.23223 7.76777C4.58187 8.1174 5.02732 8.3555 5.51228 8.45196C5.99723 8.54843 6.49989 8.49892 6.95671 8.3097C7.41352 8.12048 7.80397 7.80005 8.07868 7.38893C8.35338 6.9778 8.5 6.49445 8.5 6C8.49921 5.3372 8.23556 4.70178 7.76689 4.23311C7.29822 3.76444 6.6628 3.50079 6 3.5V3.5ZM6 7.5C5.70333 7.5 5.41332 7.41203 5.16665 7.2472C4.91997 7.08238 4.72771 6.84811 4.61418 6.57403C4.50065 6.29994 4.47095 5.99834 4.52882 5.70736C4.5867 5.41639 4.72956 5.14912 4.93934 4.93934C5.14912 4.72956 5.41639 4.5867 5.70737 4.52882C5.99834 4.47094 6.29994 4.50065 6.57403 4.61418C6.84812 4.72771 7.08238 4.91997 7.24721 5.16664C7.41203 5.41332 7.5 5.70333 7.5 6C7.5 6.39783 7.34197 6.77936 7.06066 7.06066C6.77936 7.34197 6.39783 7.5 6 7.5Z" fill="#AC08A1"/>
</g>
<defs>
<clipPath id="clip0_626_7437">
<rect width="12" height="12" fill="white"/>
</clipPath>
</defs>
</svg>
