<svg width="14" height="14" viewBox="0 0 14 14" fill="none" xmlns="http://www.w3.org/2000/svg">
<path d="M7 0C5.61553 0 4.26215 0.410543 3.11101 1.17971C1.95987 1.94888 1.06266 3.04213 0.532846 4.32121C0.00303298 5.6003 -0.13559 7.00776 0.134506 8.36563C0.404603 9.7235 1.07129 10.9708 2.05026 11.9497C3.02922 12.9287 4.2765 13.5954 5.63437 13.8655C6.99224 14.1356 8.3997 13.997 9.67879 13.4672C10.9579 12.9373 12.0511 12.0401 12.8203 10.889C13.5895 9.73785 14 8.38447 14 7C13.998 5.1441 13.2599 3.36479 11.9475 2.05247C10.6352 0.74015 8.8559 0.0020073 7 0ZM7 11.6667C6.88463 11.6667 6.77185 11.6325 6.67592 11.5684C6.57999 11.5043 6.50522 11.4132 6.46107 11.3066C6.41692 11.2 6.40537 11.0827 6.42788 10.9695C6.45039 10.8564 6.50594 10.7524 6.58752 10.6709C6.6691 10.5893 6.77304 10.5337 6.8862 10.5112C6.99935 10.4887 7.11664 10.5003 7.22323 10.5444C7.32982 10.5886 7.42093 10.6633 7.48503 10.7592C7.54912 10.8552 7.58333 10.968 7.58333 11.0833C7.58333 11.238 7.52188 11.3864 7.41248 11.4958C7.30308 11.6052 7.15471 11.6667 7 11.6667ZM8.12583 7.29517C7.95369 7.4028 7.81292 7.55386 7.71769 7.73316C7.62246 7.91247 7.57612 8.11369 7.58333 8.31658V8.75C7.58333 8.90471 7.52188 9.05308 7.41248 9.16248C7.30308 9.27187 7.15471 9.33333 7 9.33333C6.84529 9.33333 6.69692 9.27187 6.58752 9.16248C6.47813 9.05308 6.41667 8.90471 6.41667 8.75V8.31658C6.40805 7.90499 6.50975 7.4986 6.71121 7.13959C6.91267 6.78057 7.20654 6.48202 7.56233 6.27492C7.77786 6.15621 7.95034 5.9724 8.05511 5.74976C8.15988 5.52713 8.19158 5.27707 8.14567 5.03533C8.10021 4.80503 7.98714 4.59351 7.8209 4.42778C7.65465 4.26206 7.44277 4.14965 7.21234 4.10492C7.04417 4.07379 6.87122 4.08002 6.70573 4.12315C6.54024 4.16629 6.38626 4.24528 6.25469 4.35453C6.12312 4.46379 6.01717 4.60063 5.94436 4.75538C5.87155 4.91012 5.83364 5.07898 5.83334 5.25C5.83334 5.40471 5.77188 5.55308 5.66248 5.66248C5.55308 5.77187 5.40471 5.83333 5.25 5.83333C5.09529 5.83333 4.94692 5.77187 4.83752 5.66248C4.72813 5.55308 4.66667 5.40471 4.66667 5.25C4.66681 4.83846 4.7758 4.43428 4.98258 4.07846C5.18935 3.72264 5.48655 3.42784 5.84404 3.22396C6.20152 3.02008 6.60657 2.91437 7.0181 2.91756C7.42962 2.92075 7.83298 3.03273 8.18726 3.24213C8.54154 3.45153 8.83414 3.75091 9.03537 4.1099C9.2366 4.46888 9.3393 4.8747 9.33307 5.28619C9.32683 5.69768 9.21187 6.1002 8.99985 6.45292C8.78783 6.80564 8.4863 7.0966 8.12583 7.29517Z" fill="#C4C4C4"/>
</svg>
