<svg width="17" height="18" viewBox="0 0 17 18" fill="none" xmlns="http://www.w3.org/2000/svg">
<path d="M11.3701 14.6737C11.3701 13.5482 10.5797 12.0101 9.14689 10.3422C9.06759 10.2496 8.96828 10.1754 8.85613 10.1249C8.74397 10.0745 8.62177 10.049 8.49834 10.0503C8.37399 10.0498 8.25102 10.0757 8.13796 10.1264C8.0249 10.1771 7.92447 10.2512 7.84365 10.3437C6.27516 12.1422 5.50855 13.7328 5.64117 14.9521C5.69336 15.3376 5.82843 15.7078 6.03747 16.0385C6.24652 16.3692 6.52479 16.6528 6.85395 16.8706C7.31959 17.2443 7.89671 17.4597 8.49834 17.4843C9.25972 17.4835 9.98968 17.1872 10.5281 16.6602C11.0664 16.1333 11.3693 15.4189 11.3701 14.6737Z" fill="#AC08A1"/>
<path d="M12.0469 2.17465C11.4444 1.67345 10.8119 1.14824 10.1679 0.575012C9.92377 0.358048 9.6341 0.195939 9.3192 0.100032C9.0043 0.00412534 8.67179 -0.0232614 8.34495 0.0197891C8.02817 0.0608503 7.72447 0.169489 7.4553 0.33803C7.18613 0.506571 6.95806 0.730904 6.78719 0.99518C5.87369 2.48965 5.22761 4.12581 4.87679 5.83312C4.73954 5.63861 4.61756 5.43419 4.51189 5.22163C4.40338 4.99787 4.23997 4.80389 4.03624 4.65697C3.83252 4.51006 3.5948 4.41478 3.3443 4.37964C3.0938 4.34449 2.83831 4.37058 2.60062 4.45558C2.36293 4.54057 2.15042 4.68182 1.98207 4.86673C0.696695 6.15305 -0.0158265 7.88525 0.000377382 9.68441C-0.017399 11.5222 0.593296 13.3131 1.73531 14.772C2.87731 16.231 4.48504 17.2743 6.30269 17.7359C6.99865 17.9073 7.71317 17.996 8.43081 18C7.51374 17.9665 6.63227 17.6439 5.91785 17.0801C5.42294 16.7392 5.00679 16.3003 4.69643 15.7918C4.38606 15.2833 4.18842 14.7166 4.11632 14.1284C3.93999 12.4703 4.8009 10.5398 6.67527 8.3909C6.90012 8.13292 7.17966 7.92593 7.49447 7.78432C7.80927 7.6427 8.1518 7.56985 8.49827 7.57082H8.50593C8.85139 7.57109 9.19262 7.64508 9.50588 7.78762C9.81913 7.93016 10.0969 8.13782 10.3197 8.39615C11.4988 9.76695 12.9055 11.7988 12.9055 13.694C12.9038 14.7862 12.4788 15.8372 11.7163 16.6347C10.9539 17.4322 9.91064 17.9169 8.79725 17.991C10.9987 17.9216 13.0861 17.0161 14.6172 15.4665C16.1483 13.9168 17.0029 11.8446 17 9.68892C16.9962 6.29005 14.7025 4.38429 12.0469 2.17465Z" fill="#AC08A1"/>
</svg>
