<svg width="52" height="52" viewBox="0 0 52 52" fill="none" xmlns="http://www.w3.org/2000/svg">
<g clip-path="url(#clip0_626_7186)">
<path d="M51.409 25.9999C51.409 11.9669 40.033 0.59082 25.9999 0.59082C11.9669 0.59082 0.59082 11.9669 0.59082 25.9999C0.59082 40.033 11.9669 51.409 25.9999 51.409C40.033 51.409 51.409 40.033 51.409 25.9999Z" fill="white"/>
<mask id="mask0_626_7186" style="mask-type:luminance" maskUnits="userSpaceOnUse" x="14" y="14" width="24" height="24">
<path d="M37.8182 14.1816H14.1819V37.818H37.8182V14.1816Z" fill="white"/>
</mask>
<g mask="url(#mask0_626_7186)">
<path d="M37.3455 26.2685C37.3455 25.4305 37.2703 24.6247 37.1306 23.8511H26V28.4226H32.3603C32.0864 29.8999 31.2538 31.1515 30.0021 31.9895V34.9548H33.8215C36.0562 32.8974 37.3455 29.8676 37.3455 26.2685Z" fill="#4285F4"/>
<path d="M26.0002 37.8178C29.1911 37.8178 31.8662 36.7595 33.8216 34.9547L30.0022 31.9894C28.944 32.6984 27.5902 33.1174 26.0002 33.1174C22.922 33.1174 20.3167 31.0385 19.3873 28.2451H15.439V31.3071C17.3836 35.1695 21.3803 37.8178 26.0002 37.8178Z" fill="#34A853"/>
<path d="M19.3872 28.2453C19.1508 27.5362 19.0166 26.7787 19.0166 25.9998C19.0166 25.2209 19.1508 24.4634 19.3872 23.7544V20.6924H15.4389C14.6385 22.2878 14.1819 24.0928 14.1819 25.9998C14.1819 27.9068 14.6385 29.7118 15.4389 31.3072L19.3872 28.2453Z" fill="#FBBC04"/>
<path d="M26.0002 18.8821C27.7352 18.8821 29.2931 19.4783 30.5179 20.6494L33.9076 17.2597C31.8609 15.3527 29.1856 14.1816 26.0002 14.1816C21.3803 14.1816 17.3836 16.83 15.439 20.6924L19.3873 23.7544C20.3167 20.961 22.922 18.8821 26.0002 18.8821Z" fill="#E94235"/>
</g>
<path d="M51.409 25.9999C51.409 11.9669 40.033 0.59082 25.9999 0.59082C11.9669 0.59082 0.59082 11.9669 0.59082 25.9999C0.59082 40.033 11.9669 51.409 25.9999 51.409C40.033 51.409 51.409 40.033 51.409 25.9999Z" stroke="white"/>
</g>
<defs>
<clipPath id="clip0_626_7186">
<rect width="52" height="52" fill="white"/>
</clipPath>
</defs>
</svg>
