<svg width="14" height="14" viewBox="0 0 14 14" fill="none" xmlns="http://www.w3.org/2000/svg">
<path d="M5.075 10.5001H1.75C0.879083 10.5001 0 9.83861 0 8.36165V5.42172C0.0122658 4.08136 0.514165 2.79172 1.41119 1.79567C2.30821 0.799611 3.53845 0.165869 4.87025 0.0137788C5.62179 -0.0407765 6.37628 0.0670833 7.08243 0.330029C7.78858 0.592975 8.42985 1.00484 8.96267 1.53765C9.49549 2.07046 9.90737 2.71171 10.1703 3.41785C10.4333 4.12398 10.5411 4.87844 10.4866 5.62997C10.3343 6.96228 9.7 8.19289 8.70321 9.08995C7.70642 9.987 6.41597 10.4885 5.075 10.5001ZM11.6667 5.29689H11.6597C11.6597 5.43514 11.6597 5.57338 11.6527 5.71221C11.4275 8.8668 8.54408 11.5372 5.299 11.6556V11.6644C5.70769 12.3732 6.29555 12.9621 7.00363 13.372C7.71172 13.7819 8.51514 13.9985 9.33333 14H12.25C12.7141 14 13.1592 13.8156 13.4874 13.4875C13.8156 13.1593 14 12.7142 14 12.25V9.33345C13.9992 8.51512 13.7831 7.71139 13.3736 7.00289C12.964 6.2944 12.3754 5.70606 11.6667 5.29689Z" fill="#C4C4C4"/>
</svg>
