<svg width="16" height="16" viewBox="0 0 16 16" fill="none" xmlns="http://www.w3.org/2000/svg">
<path d="M9.22846 11.5101L7.05405 13.6845C5.72755 14.9755 3.60564 14.9468 2.3146 13.6203C1.04846 12.3195 1.04818 10.247 2.31394 8.94575L4.48835 6.76935C4.74863 6.50888 4.74848 6.08674 4.48801 5.82646C4.22754 5.56618 3.8054 5.56633 3.54511 5.8268L1.37136 8.0032C-0.457772 9.83327 -0.457022 12.7996 1.37302 14.6288C3.20306 16.4579 6.16944 16.4572 7.9986 14.6271L10.173 12.4527C10.4288 12.1879 10.4214 11.7659 10.1566 11.5102C9.89832 11.2607 9.48878 11.2607 9.23046 11.5102H9.22846V11.5101Z" fill="#AC08A1"/>
<path d="M14.627 1.37386C13.7509 0.491679 12.558 -0.00307684 11.3147 1.65574e-05C10.0721 -0.00329556 8.87967 0.490429 8.00309 1.3712L5.82534 3.54627C5.56487 3.80655 5.56471 4.22869 5.82499 4.48916C6.08528 4.74963 6.50741 4.74978 6.76788 4.4895L8.94429 2.31509C9.57113 1.68448 10.4242 1.33093 11.3134 1.33321C13.1644 1.33383 14.6645 2.83488 14.6639 4.68592C14.6636 5.57431 14.3106 6.42628 13.6824 7.05455L11.508 9.22896C11.2475 9.48943 11.2475 9.91172 11.508 10.1722C11.7685 10.4327 12.1908 10.4327 12.4512 10.1722L14.6256 7.9991C16.4522 6.16856 16.4528 3.20509 14.627 1.37386Z" fill="#AC08A1"/>
<path d="M9.52701 5.52841L5.52747 9.52795C5.26266 9.7837 5.25535 10.2057 5.5111 10.4705C5.76685 10.7353 6.18887 10.7426 6.45365 10.4869C6.45921 10.4815 6.46465 10.4761 6.47002 10.4705L10.4696 6.47096C10.7253 6.20615 10.718 5.78416 10.4531 5.52841C10.1949 5.27894 9.78535 5.27894 9.52701 5.52841Z" fill="#AC08A1"/>
</svg>
