<svg width="20" height="20" viewBox="0 0 20 20" fill="none" xmlns="http://www.w3.org/2000/svg">
<path d="M14.1667 0H5.83341C4.72875 0.00132321 3.66971 0.440735 2.8886 1.22185C2.10748 2.00296 1.66807 3.062 1.66675 4.16667V16.6667C1.66675 17.5507 2.01794 18.3986 2.64306 19.0237C3.26818 19.6488 4.11603 20 5.00008 20H14.1667C15.2714 19.9987 16.3305 19.5593 17.1116 18.7782C17.8927 17.997 18.3321 16.938 18.3334 15.8333V4.16667C18.3321 3.062 17.8927 2.00296 17.1116 1.22185C16.3305 0.440735 15.2714 0.00132321 14.1667 0V0ZM16.6667 4.16667V13.3333H6.66675V1.66667H14.1667C14.8298 1.66667 15.4657 1.93006 15.9345 2.3989C16.4034 2.86774 16.6667 3.50363 16.6667 4.16667ZM5.00008 1.81V13.3333C4.41477 13.3328 3.83975 13.4872 3.33341 13.7808V4.16667C3.33349 3.64974 3.4938 3.14555 3.79228 2.7235C4.09075 2.30145 4.51272 1.98231 5.00008 1.81V1.81ZM14.1667 18.3333H5.00008C4.55805 18.3333 4.13413 18.1577 3.82157 17.8452C3.50901 17.5326 3.33341 17.1087 3.33341 16.6667C3.33341 16.2246 3.50901 15.8007 3.82157 15.4882C4.13413 15.1756 4.55805 15 5.00008 15H16.6667V15.8333C16.6667 16.4964 16.4034 17.1323 15.9345 17.6011C15.4657 18.0699 14.8298 18.3333 14.1667 18.3333Z" fill="#9D9D9D"/>
</svg>
