<svg width="17" height="17" viewBox="0 0 17 17" fill="none" xmlns="http://www.w3.org/2000/svg">
<path d="M7.79167 7.08333C9.74767 7.08333 11.3333 8.66899 11.3333 10.625V13.4583C11.3333 15.4143 9.74767 17 7.79167 17H3.54167C1.58566 17 4.56363e-08 15.4143 0 13.4583V10.625C4.56363e-08 8.66899 1.58566 7.08333 3.54167 7.08333H7.79167ZM4.98669 9.21248C4.74071 9.19348 4.49369 9.23905 4.27352 9.34391C4.05343 9.44878 3.86869 9.60904 3.7395 9.80668C3.61027 10.0045 3.54164 10.2324 3.54167 10.4645V13.6181C3.54119 13.8502 3.60915 14.078 3.73812 14.276C3.8672 14.4739 4.05251 14.6345 4.27283 14.7394C4.49308 14.8444 4.73993 14.89 4.986 14.8708C5.23207 14.8516 5.46781 14.7684 5.66667 14.6308L7.95422 13.0537C8.1233 12.9371 8.26061 12.7847 8.35543 12.6089C8.45028 12.433 8.5 12.2382 8.5 12.041C8.49996 11.8438 8.45023 11.6496 8.35543 11.4738C8.26062 11.2979 8.12331 11.1455 7.95422 11.029L5.66736 9.45182C5.46836 9.31454 5.23269 9.23152 4.98669 9.21248ZM4.87878 9.91528C5.00211 9.91585 5.12227 9.95396 5.22119 10.0232L7.50667 11.6003C7.58039 11.6511 7.64036 11.7174 7.68168 11.794C7.72297 11.8706 7.74459 11.9551 7.74463 12.041C7.74463 12.1269 7.72301 12.212 7.68168 12.2886C7.64036 12.3652 7.58034 12.4315 7.50667 12.4823H7.50806L5.22188 14.0594C5.13517 14.1193 5.03236 14.1556 4.92513 14.1639C4.81795 14.1722 4.7105 14.1522 4.61454 14.1065C4.51862 14.0608 4.43775 13.9913 4.38143 13.9052C4.3251 13.819 4.29492 13.7193 4.29496 13.6181V10.4645C4.29381 10.3632 4.3236 10.2631 4.38005 10.1768C4.43649 10.0905 4.51794 10.0209 4.61454 9.97616C4.69633 9.93672 4.78687 9.91567 4.87878 9.91528ZM10.625 3.54167C11.564 3.54279 12.4644 3.91601 13.1284 4.57996C13.7923 5.2439 14.1655 6.14437 14.1667 7.08333V9.91667C14.1651 10.4636 14.0362 11.0025 13.7904 11.491C13.5445 11.9796 13.1883 12.4042 12.75 12.7313V10.625C12.7483 9.31049 12.2255 8.05019 11.296 7.12069C10.3665 6.19118 9.10618 5.66835 7.79167 5.66667H3.54167C3.40004 5.66667 3.25844 5.67607 3.12248 5.68811C3.39577 5.05196 3.84924 4.50965 4.42708 4.12825C5.00511 3.74685 5.68248 3.54271 6.375 3.54167H10.625ZM13.4583 0C14.3973 0.00112473 15.2978 0.374343 15.9617 1.03829C16.6257 1.70224 16.9989 2.6027 17 3.54167V6.375C16.9984 6.92189 16.8695 7.46086 16.6237 7.94938C16.3778 8.43789 16.0216 8.86252 15.5833 9.18966V7.08333C15.5816 5.76882 15.0588 4.50852 14.1293 3.57902C13.1998 2.64952 11.9395 2.12669 10.625 2.125H6.375C6.23688 2.125 6.10009 2.13513 5.9648 2.14575C6.23671 1.51043 6.68891 0.968573 7.26526 0.58728C7.84167 0.205983 8.51722 0.00168487 9.20833 0H13.4583Z" fill="#AC08A1"/>
</svg>
