<svg width="20" height="20" viewBox="0 0 20 20" fill="none" xmlns="http://www.w3.org/2000/svg">
<path d="M9.16667 8.33333C11.4679 8.33333 13.3333 10.1988 13.3333 12.5V15.8333C13.3333 18.1345 11.4679 20 9.16667 20H4.16667C1.86548 20 5.36898e-08 18.1345 0 15.8333V12.5C5.36898e-08 10.1988 1.86548 8.33333 4.16667 8.33333H9.16667ZM5.8667 10.8382C5.57731 10.8159 5.2867 10.8695 5.02767 10.9928C4.76875 11.1162 4.5514 11.3048 4.39941 11.5373C4.24737 11.77 4.16663 12.0381 4.16667 12.3112V16.0213C4.16611 16.2944 4.24606 16.5624 4.39779 16.7952C4.54965 17.0282 4.76766 17.217 5.02686 17.3405C5.28598 17.4639 5.57639 17.5177 5.86589 17.4951C6.15538 17.4725 6.43272 17.3746 6.66667 17.2127L9.35791 15.3573C9.55683 15.2202 9.71836 15.0408 9.82992 14.834C9.9415 14.627 10 14.3979 10 14.1659C9.99995 13.9339 9.94145 13.7054 9.82992 13.4985C9.71838 13.2917 9.55684 13.1124 9.35791 12.9753L6.66748 11.1198C6.43336 10.9583 6.15611 10.8606 5.8667 10.8382ZM5.73975 11.665C5.88483 11.6657 6.02619 11.7105 6.14258 11.792L8.83138 13.6475C8.9181 13.7072 8.98865 13.7852 9.03727 13.8753C9.08584 13.9654 9.11128 14.0649 9.11133 14.1659C9.11133 14.267 9.08589 14.367 9.03727 14.4572C8.98866 14.5473 8.91805 14.6253 8.83138 14.6851H8.83301L6.14339 16.5405C6.04138 16.611 5.92042 16.6536 5.79427 16.6634C5.66817 16.6732 5.54176 16.6496 5.42887 16.5959C5.31603 16.5421 5.22089 16.4603 5.15462 16.359C5.08835 16.2576 5.05285 16.1404 5.0529 16.0213V12.3112C5.05154 12.192 5.08659 12.0742 5.15299 11.9727C5.2194 11.8712 5.31522 11.7893 5.42887 11.7367C5.52509 11.6903 5.63161 11.6655 5.73975 11.665ZM12.5 4.16667C13.6047 4.16799 14.664 4.60707 15.4451 5.38818C16.2263 6.1693 16.6653 7.22867 16.6667 8.33333V11.6667C16.6648 12.3101 16.5132 12.9442 16.224 13.5189C15.9347 14.0936 15.5156 14.5932 15 14.978V12.5C14.998 10.9535 14.3829 9.47081 13.2894 8.37728C12.1959 7.28375 10.7132 6.66865 9.16667 6.66667H4.16667C4.00005 6.66667 3.83346 6.67773 3.6735 6.69189C3.99503 5.94349 4.52852 5.30547 5.20833 4.85677C5.88836 4.40806 6.68527 4.16789 7.5 4.16667H12.5ZM15.8333 0C16.938 0.00132321 17.9974 0.440403 18.7785 1.22152C19.5596 2.00263 19.9987 3.062 20 4.16667V7.5C19.9981 8.14339 19.8465 8.77748 19.5573 9.35221C19.2681 9.92693 18.8489 10.4265 18.3333 10.8114V8.33333C18.3313 6.78685 17.7163 5.30414 16.6227 4.21061C15.5292 3.11708 14.0465 2.50198 12.5 2.5H7.5C7.3375 2.5 7.17658 2.51191 7.01742 2.52441C7.33731 1.77698 7.8693 1.1395 8.54736 0.690918C9.2255 0.242333 10.0203 0.0019822 10.8333 0H15.8333Z" fill="#AC08A1"/>
</svg>
