<svg width="14" height="13" viewBox="0 0 14 13" fill="none" xmlns="http://www.w3.org/2000/svg">
<path d="M2.33371 13C2.10374 13.0006 1.87594 12.955 1.66347 12.8657C1.45101 12.7765 1.2581 12.6454 1.09592 12.48L0.195284 11.6673C0.0797198 11.5628 0.0098185 11.416 0.000957697 11.2593C-0.00790311 11.1025 0.0450024 10.9487 0.148036 10.8315C0.251069 10.7143 0.39579 10.6434 0.550362 10.6344C0.704934 10.6254 0.856694 10.6791 0.972259 10.7835L1.89681 11.62C1.94974 11.6802 2.01427 11.7289 2.08643 11.7629C2.1586 11.797 2.23687 11.8157 2.31642 11.8179C2.39598 11.8201 2.47514 11.8058 2.54904 11.7758C2.62294 11.7458 2.69001 11.7009 2.74612 11.6436L4.84605 9.61411C4.9009 9.55754 4.96641 9.51273 5.03868 9.48236C5.11095 9.45199 5.18851 9.43667 5.26674 9.43732C5.34497 9.43797 5.42228 9.45457 5.49405 9.48613C5.56583 9.51769 5.63061 9.56357 5.68454 9.62104C5.73847 9.67851 5.78045 9.74639 5.80798 9.82065C5.83552 9.89491 5.84804 9.97403 5.8448 10.0533C5.84157 10.1326 5.82264 10.2104 5.78915 10.2821C5.75566 10.3537 5.70829 10.4179 5.64986 10.4706L3.55867 12.4901C3.39755 12.6525 3.20643 12.7812 2.99624 12.8687C2.78605 12.9562 2.56092 13.0008 2.33371 13ZM13.4167 12.4085H7.58354C7.42884 12.4085 7.28047 12.3461 7.17108 12.2352C7.06169 12.1243 7.00023 11.9738 7.00023 11.8169C7.00023 11.6601 7.06169 11.5096 7.17108 11.3987C7.28047 11.2877 7.42884 11.2254 7.58354 11.2254H13.4167C13.5714 11.2254 13.7198 11.2877 13.8292 11.3987C13.9385 11.5096 14 11.6601 14 11.8169C14 11.9738 13.9385 12.1243 13.8292 12.2352C13.7198 12.3461 13.5714 12.4085 13.4167 12.4085ZM2.33371 8.2678C2.10374 8.26841 1.87594 8.22277 1.66347 8.13352C1.45101 8.04427 1.2581 7.91319 1.09592 7.74785L0.171368 6.81028C0.0651128 6.69872 0.00631802 6.5493 0.00764705 6.3942C0.00897609 6.23911 0.0703226 6.09074 0.178474 5.98107C0.286625 5.8714 0.432928 5.80919 0.585871 5.80784C0.738814 5.80649 0.88616 5.86611 0.996175 5.97386L1.92131 6.91143C2.03236 7.01911 2.18007 7.0792 2.33371 7.0792C2.48735 7.0792 2.63507 7.01911 2.74612 6.91143L4.84605 4.88191C4.95806 4.77351 5.10794 4.71466 5.26273 4.71832C5.41752 4.72198 5.56454 4.78785 5.67144 4.90143C5.77834 5.01501 5.83637 5.16701 5.83276 5.32398C5.82915 5.48095 5.7642 5.63003 5.65219 5.73844L3.55867 7.7579C3.39755 7.92034 3.20643 8.04899 2.99624 8.13648C2.78605 8.22397 2.56092 8.26859 2.33371 8.2678ZM13.4167 7.67627H7.58354C7.42884 7.67627 7.28047 7.61395 7.17108 7.50302C7.06169 7.39209 7.00023 7.24163 7.00023 7.08475C7.00023 6.92787 7.06169 6.77741 7.17108 6.66648C7.28047 6.55554 7.42884 6.49322 7.58354 6.49322H13.4167C13.5714 6.49322 13.7198 6.55554 13.8292 6.66648C13.9385 6.77741 14 6.92787 14 7.08475C14 7.24163 13.9385 7.39209 13.8292 7.50302C13.7198 7.61395 13.5714 7.67627 13.4167 7.67627ZM2.33371 3.5356C2.10374 3.53621 1.87594 3.49058 1.66347 3.40133C1.45101 3.31208 1.2581 3.18099 1.09592 3.01565L0.195284 2.2029C0.0797198 2.09842 0.0098185 1.95166 0.000957697 1.79491C-0.00790311 1.63816 0.0450024 1.48427 0.148036 1.36707C0.251069 1.24988 0.39579 1.179 0.550362 1.17001C0.704934 1.16103 0.856694 1.21468 0.972259 1.31916L1.89681 2.15558C1.94974 2.21585 2.01427 2.2645 2.08643 2.29854C2.1586 2.33258 2.23687 2.35128 2.31642 2.3535C2.39598 2.35571 2.47514 2.3414 2.54904 2.31143C2.62294 2.28146 2.69001 2.23647 2.74612 2.17924L4.84838 0.149718C4.96143 0.0476625 5.10916 -0.00584155 5.26038 0.000506693C5.4116 0.00685493 5.55447 0.0725584 5.6588 0.18374C5.76314 0.294921 5.82078 0.442874 5.81955 0.596349C5.81831 0.749824 5.7583 0.896805 5.65219 1.00625L3.55867 3.02571C3.39755 3.18815 3.20643 3.3168 2.99624 3.40429C2.78605 3.49178 2.56092 3.5364 2.33371 3.5356ZM13.4167 2.94408H7.58354C7.42884 2.94408 7.28047 2.88176 7.17108 2.77082C7.06169 2.65989 7.00023 2.50944 7.00023 2.35255C7.00023 2.19567 7.06169 2.04522 7.17108 1.93428C7.28047 1.82335 7.42884 1.76103 7.58354 1.76103H13.4167C13.5714 1.76103 13.7198 1.82335 13.8292 1.93428C13.9385 2.04522 14 2.19567 14 2.35255C14 2.50944 13.9385 2.65989 13.8292 2.77082C13.7198 2.88176 13.5714 2.94408 13.4167 2.94408Z" fill="#C4C4C4"/>
</svg>
