<svg width="13" height="13" viewBox="0 0 13 13" fill="none" xmlns="http://www.w3.org/2000/svg">
<path d="M1.23489 9.31218L4.22021 12.2913C3.80279 12.4609 3.3445 12.5039 2.90272 12.4148C2.46093 12.3258 2.0553 12.1086 1.7366 11.7906C1.4179 11.4726 1.20031 11.0678 1.11107 10.6269C1.02182 10.1861 1.06489 9.72872 1.23489 9.31218ZM3.95804 1.07258C4.09912 1.04385 4.22298 0.960369 4.30238 0.840506C4.38178 0.720642 4.41021 0.574213 4.38141 0.433431C4.35262 0.29265 4.26897 0.169047 4.14885 0.0898155C4.02874 0.0105836 3.882 -0.0177875 3.74093 0.0109435C2.28537 0.265409 0.981959 1.06453 0.0966695 2.24525C0.0163255 2.36094 -0.0157368 2.50329 0.00727395 2.64216C0.0302847 2.78103 0.106561 2.9055 0.219947 2.98922C0.333333 3.07293 0.474922 3.10932 0.614725 3.09067C0.754528 3.07201 0.881564 2.99978 0.968925 2.88928C1.69308 1.92153 2.7641 1.27059 3.95804 1.07258ZM12.5737 8.67899C12.4331 8.6482 12.286 8.67439 12.1648 8.75179C12.0436 8.82919 11.9581 8.95146 11.9272 9.09172C11.721 10.2605 11.0774 11.3074 10.1268 12.0204C10.0105 12.1052 9.93267 12.2326 9.91048 12.3746C9.88828 12.5166 9.92353 12.6616 10.0085 12.7777C10.0934 12.8937 10.2211 12.9714 10.3634 12.9935C10.5057 13.0157 10.651 12.9805 10.7673 12.8957C11.9289 12.0244 12.721 10.7502 12.9873 9.32463C13.0026 9.25514 13.0041 9.1833 12.9916 9.11324C12.9791 9.04317 12.953 8.97624 12.9145 8.91628C12.8761 8.85632 12.8263 8.8045 12.7678 8.76379C12.7093 8.72307 12.6433 8.69425 12.5737 8.67899ZM10.9274 2.84215L11.7633 2.00801C11.8151 1.95805 11.8565 1.89828 11.8849 1.83219C11.9134 1.76611 11.9284 1.69503 11.929 1.62311C11.9296 1.55119 11.9159 1.47987 11.8886 1.4133C11.8613 1.34674 11.821 1.28626 11.77 1.2354C11.7191 1.18455 11.6585 1.14433 11.5917 1.11709C11.525 1.08986 11.4536 1.07615 11.3815 1.07678C11.3094 1.0774 11.2382 1.09234 11.172 1.12073C11.1058 1.14912 11.0459 1.19038 10.9958 1.24212L10.1588 2.07734C9.40944 1.4831 8.49264 1.13752 7.53671 1.08896C6.58078 1.0404 5.63356 1.29129 4.82758 1.80652L1.84227 3.64813C1.4922 3.86402 1.19561 4.15616 0.974716 4.50265C0.753822 4.84914 0.614344 5.24101 0.566727 5.64892C0.519111 6.05683 0.564589 6.4702 0.699757 6.85808C0.834926 7.24596 1.05628 7.5983 1.34725 7.88872L5.12449 11.6581C5.41604 11.9491 5.76992 12.1704 6.15952 12.3053C6.54911 12.4402 6.96428 12.4852 7.37381 12.4369C7.78335 12.3886 8.17659 12.2483 8.52396 12.0266C8.87133 11.8048 9.1638 11.5073 9.37938 11.1565L11.3334 7.97376C11.7825 7.17442 11.9837 6.26 11.9114 5.34642C11.8392 4.43284 11.4967 3.56125 10.9274 2.84215Z" fill="#C4C4C4"/>
</svg>
