<svg width="11" height="14" viewBox="0 0 11 14" fill="none" xmlns="http://www.w3.org/2000/svg">
<path d="M7.94444 0.175C8.37576 0.316154 8.76824 0.54823 9.09272 0.854L10.1047 1.82117C10.4254 2.1305 10.6688 2.50499 10.8167 2.91667H7.94444V0.175ZM11 4.08333V11.0833C10.999 11.8566 10.6768 12.5979 10.104 13.1447C9.53116 13.6915 8.75453 13.9991 7.94444 14H3.05556C2.24547 13.9991 1.46884 13.6915 0.896023 13.1447C0.323206 12.5979 0.000970357 11.8566 0 11.0833V2.91667C0.000970357 2.1434 0.323206 1.40208 0.896023 0.855295C1.46884 0.308514 2.24547 0.00092625 3.05556 0L6.72222 0V2.91667C6.72222 3.22609 6.85099 3.52283 7.0802 3.74162C7.30941 3.96042 7.62029 4.08333 7.94444 4.08333H11ZM8.43822 10.1576C8.39107 10.0953 8.3315 10.0425 8.26293 10.0023C8.19436 9.96208 8.11813 9.93517 8.03863 9.92314C7.95914 9.91111 7.87793 9.91418 7.79968 9.93219C7.72143 9.9502 7.64768 9.98279 7.58267 10.0281C7.17207 10.3009 6.69246 10.4639 6.19361 10.5C5.99816 10.4949 5.81099 10.4236 5.66561 10.2987C5.34669 10.0572 4.95314 9.92287 4.54606 9.91667C3.86813 9.9775 3.22242 10.2215 2.68461 10.6202C2.61786 10.6656 2.56137 10.7234 2.5185 10.79C2.47562 10.8567 2.44724 10.931 2.43504 11.0083C2.42284 11.0857 2.42707 11.1646 2.44748 11.2404C2.46789 11.3162 2.50407 11.3873 2.55385 11.4494C2.60363 11.5116 2.66601 11.5636 2.73727 11.6022C2.80852 11.6409 2.8872 11.6655 2.96862 11.6746C3.05004 11.6836 3.13253 11.677 3.2112 11.655C3.28986 11.633 3.36308 11.5961 3.4265 11.5465C3.75199 11.3032 4.13748 11.1437 4.54606 11.0833C4.69639 11.0833 4.77278 11.1288 4.97383 11.2583C5.32206 11.5209 5.75232 11.6646 6.19606 11.6667C6.95555 11.6335 7.68888 11.3919 8.30805 10.9707C8.4379 10.8791 8.52447 10.7422 8.54886 10.5898C8.57325 10.4374 8.53347 10.282 8.43822 10.1576ZM8.55556 8.16667C8.55556 8.01196 8.49117 7.86358 8.37657 7.75419C8.26196 7.64479 8.10652 7.58333 7.94444 7.58333H3.05556C2.89348 7.58333 2.73804 7.64479 2.62343 7.75419C2.50883 7.86358 2.44444 8.01196 2.44444 8.16667C2.44444 8.32138 2.50883 8.46975 2.62343 8.57915C2.73804 8.68854 2.89348 8.75 3.05556 8.75H7.94444C8.10652 8.75 8.26196 8.68854 8.37657 8.57915C8.49117 8.46975 8.55556 8.32138 8.55556 8.16667ZM8.55556 5.83333C8.55556 5.67862 8.49117 5.53025 8.37657 5.42085C8.26196 5.31146 8.10652 5.25 7.94444 5.25H3.05556C2.89348 5.25 2.73804 5.31146 2.62343 5.42085C2.50883 5.53025 2.44444 5.67862 2.44444 5.83333C2.44444 5.98804 2.50883 6.13642 2.62343 6.24581C2.73804 6.35521 2.89348 6.41667 3.05556 6.41667H7.94444C8.10652 6.41667 8.26196 6.35521 8.37657 6.24581C8.49117 6.13642 8.55556 5.98804 8.55556 5.83333Z" fill="#C4C4C4"/>
</svg>
