<svg width="14" height="17" viewBox="0 0 14 17" fill="none" xmlns="http://www.w3.org/2000/svg">
<path d="M11.6067 1.51598L7.2212 0.036295C7.07761 -0.0120983 6.92239 -0.0120983 6.7788 0.036295L2.3933 1.51598C1.69603 1.75035 1.08949 2.20111 0.659852 2.80421C0.230212 3.40732 -0.000673172 4.13209 1.47428e-06 4.87555V8.50004C1.47428e-06 13.8571 6.44 16.8157 6.7158 16.939C6.80527 16.9792 6.90209 17 7 17C7.09791 17 7.19473 16.9792 7.2842 16.939C7.56 16.8157 14 13.8571 14 8.50004V4.87555C14.0007 4.13209 13.7698 3.40732 13.3401 2.80421C12.9105 2.20111 12.304 1.75035 11.6067 1.51598ZM10.3026 6.88294L7.3122 9.90889C7.18983 10.0335 7.0442 10.1324 6.88378 10.1996C6.72336 10.2668 6.55134 10.3012 6.3777 10.3006H6.3546C6.17742 10.2979 6.00264 10.2588 5.84081 10.1857C5.67899 10.1127 5.53348 10.0072 5.4131 9.8756L3.7989 8.17563C3.72899 8.11 3.67307 8.0306 3.63458 7.94232C3.59608 7.85404 3.57582 7.75872 3.57503 7.66223C3.57424 7.56574 3.59294 7.4701 3.62999 7.38119C3.66704 7.29227 3.72165 7.21195 3.79048 7.14516C3.8593 7.07837 3.94089 7.02651 4.03023 6.99277C4.11958 6.95902 4.21479 6.94411 4.31003 6.94894C4.40528 6.95377 4.49854 6.97824 4.5841 7.02085C4.66966 7.06346 4.74572 7.12331 4.8076 7.19673L6.3784 8.8542L9.31 5.87925C9.44202 5.75022 9.61884 5.67883 9.80238 5.68044C9.98592 5.68205 10.1615 5.75655 10.2913 5.88788C10.4211 6.0192 10.4947 6.19686 10.4963 6.38258C10.4979 6.5683 10.4273 6.74722 10.2998 6.88082L10.3026 6.88294Z" fill="#C4C4C4"/>
</svg>
