<svg width="16" height="16" viewBox="0 0 16 16" fill="none" xmlns="http://www.w3.org/2000/svg">
<path fill-rule="evenodd" clip-rule="evenodd" d="M6.42692 0.333344C3.06408 0.333344 0.333252 3.03774 0.333252 6.37957C0.333252 9.7214 3.06408 12.4258 6.42692 12.4258C7.68067 12.4258 8.84691 12.0498 9.8162 11.405L13.7916 15.3476C14.2205 15.773 14.9148 15.773 15.3437 15.3476C15.7742 14.9207 15.7742 14.2274 15.3437 13.8005L11.3938 9.88313C12.1031 8.89488 12.5206 7.68532 12.5206 6.37957C12.5206 3.03774 9.78976 0.333344 6.42692 0.333344ZM2.53108 6.37957C2.53108 4.24979 4.27271 2.51857 6.42692 2.51857C8.58113 2.51857 10.3228 4.24979 10.3228 6.37957C10.3228 8.50935 8.58113 10.2406 6.42692 10.2406C4.27271 10.2406 2.53108 8.50935 2.53108 6.37957Z" fill="#AC08A1"/>
</svg>
