<svg width="16" height="16" viewBox="0 0 16 16" fill="none" xmlns="http://www.w3.org/2000/svg">
<mask id="mask0_701_5062" style="mask-type:alpha" maskUnits="userSpaceOnUse" x="0" y="0" width="16" height="16">
<path fill-rule="evenodd" clip-rule="evenodd" d="M6.42692 0.333496C3.06408 0.333496 0.333252 3.03789 0.333252 6.37972C0.333252 9.72155 3.06408 12.4259 6.42692 12.4259C7.68067 12.4259 8.84691 12.0499 9.8162 11.4052L13.7916 15.3478C14.2205 15.7732 14.9148 15.7732 15.3437 15.3478C15.7742 14.9209 15.7742 14.2276 15.3437 13.8007L11.3938 9.88328C12.1031 8.89503 12.5206 7.68547 12.5206 6.37972C12.5206 3.03789 9.78976 0.333496 6.42692 0.333496ZM2.53108 6.37972C2.53108 4.24994 4.27271 2.51872 6.42692 2.51872C8.58113 2.51872 10.3228 4.24994 10.3228 6.37972C10.3228 8.5095 8.58113 10.2407 6.42692 10.2407C4.27271 10.2407 2.53108 8.5095 2.53108 6.37972Z" fill="#006FFD"/>
</mask>
<g mask="url(#mask0_701_5062)">
<rect width="16" height="16" fill="#AC08A1"/>
</g>
</svg>
