<svg width="20" height="20" viewBox="0 0 20 20" fill="none" xmlns="http://www.w3.org/2000/svg">
<path d="M18.15 3.33332H15.515C15.1083 1.39465 13.3688 0.0025 11.35 0H9.64997C7.63113 0.0025 5.89162 1.39465 5.48498 3.33332H2.84999C2.38055 3.33332 2 3.70641 2 4.16664C2 4.62687 2.38055 5 2.84999 5H3.69998V15.8333C3.70281 18.1334 5.60395 19.9973 7.95 20H13.05C15.396 19.9973 17.2972 18.1334 17.3 15.8333V5H18.15C18.6195 5 19 4.62691 19 4.16668C19 3.70645 18.6195 3.33332 18.15 3.33332ZM9.65001 14.1667C9.65001 14.6269 9.26946 15 8.80002 15C8.33054 15 7.95 14.6269 7.95 14.1667V9.16668C7.95 8.70645 8.33054 8.33336 8.79998 8.33336C9.26942 8.33336 9.64997 8.70645 9.64997 9.16668V14.1667H9.65001ZM13.05 14.1667C13.05 14.6269 12.6695 15 12.2 15C11.7306 15 11.35 14.6269 11.35 14.1667V9.16668C11.35 8.70645 11.7306 8.33336 12.2 8.33336C12.6695 8.33336 13.05 8.70645 13.05 9.16668V14.1667ZM7.24536 3.33332C7.6069 2.33523 8.56969 1.66793 9.65001 1.66664H11.35C12.4304 1.66793 13.3931 2.33523 13.7547 3.33332H7.24536Z" fill="#F79DFF"/>
</svg>
