<svg width="14" height="17" viewBox="0 0 14 17" fill="none" xmlns="http://www.w3.org/2000/svg">
<path d="M8.4 4.95833V0.325833C9.04754 0.573279 9.6357 0.957179 10.1255 1.45208L12.5643 3.92133C13.0539 4.41637 13.4336 5.01138 13.678 5.66667H9.1C8.91435 5.66667 8.7363 5.59204 8.60503 5.4592C8.47375 5.32636 8.4 5.14619 8.4 4.95833ZM14 7.42687V13.4583C13.9989 14.3973 13.6298 15.2975 12.9736 15.9614C12.3175 16.6254 11.4279 16.9989 10.5 17H3.5C2.57208 16.9989 1.68249 16.6254 1.02635 15.9614C0.370217 15.2975 0.0011115 14.3973 0 13.4583V3.54167C0.0011115 2.6027 0.370217 1.70252 1.02635 1.03857C1.68249 0.374625 2.57208 0.00112473 3.5 0L6.6605 0C6.7746 0 6.8873 0.00920833 7 0.017V4.95833C7 5.52192 7.22125 6.06242 7.61508 6.46094C8.0089 6.85945 8.54305 7.08333 9.1 7.08333H13.9832C13.9909 7.19737 14 7.31142 14 7.42687ZM8.4 13.4583C8.4 13.2705 8.32625 13.0903 8.19497 12.9575C8.0637 12.8246 7.88565 12.75 7.7 12.75H4.2C4.01435 12.75 3.8363 12.8246 3.70503 12.9575C3.57375 13.0903 3.5 13.2705 3.5 13.4583C3.5 13.6462 3.57375 13.8264 3.70503 13.9592C3.8363 14.092 4.01435 14.1667 4.2 14.1667H7.7C7.88565 14.1667 8.0637 14.092 8.19497 13.9592C8.32625 13.8264 8.4 13.6462 8.4 13.4583ZM10.5 10.625C10.5 10.4371 10.4263 10.257 10.295 10.1241C10.1637 9.99129 9.98565 9.91667 9.8 9.91667H4.2C4.01435 9.91667 3.8363 9.99129 3.70503 10.1241C3.57375 10.257 3.5 10.4371 3.5 10.625C3.5 10.8129 3.57375 10.993 3.70503 11.1259C3.8363 11.2587 4.01435 11.3333 4.2 11.3333H9.8C9.98565 11.3333 10.1637 11.2587 10.295 11.1259C10.4263 10.993 10.5 10.8129 10.5 10.625Z" fill="#C4C4C4"/>
</svg>
