<svg width="20" height="18" viewBox="0 0 20 18" fill="none" xmlns="http://www.w3.org/2000/svg">
<path d="M11.1024 0C13.4613 0.00261881 15.7234 0.951444 17.3914 2.63867C19.0593 4.32592 19.9973 6.61394 19.9998 9C19.9998 11.3869 19.0619 13.6764 17.3934 15.3643C15.7249 17.0518 13.4619 18 11.1024 18C8.74283 18 6.47989 17.0518 4.81135 15.3643C3.29891 13.8344 2.38873 11.81 2.23127 9.66699C2.16252 9.74941 2.1044 9.8291 2.06232 9.89746L1.23615 11.0537C1.13 11.202 0.969538 11.301 0.790838 11.3301C0.611987 11.3591 0.428789 11.3154 0.282049 11.208C0.135387 11.1006 0.0373352 10.9386 0.00861111 10.7578C-0.020061 10.5769 0.0235122 10.3916 0.129705 10.2432L1.33088 8.56445C1.64941 8.11926 2.1294 7.82045 2.66584 7.7334C3.20237 7.6464 3.75101 7.77836 4.19123 8.10059L5.85138 9.31543C5.9981 9.42285 6.09713 9.58473 6.1258 9.76562C6.15446 9.9465 6.11086 10.1319 6.0047 10.2803C5.89856 10.4286 5.73815 10.5286 5.55939 10.5576C5.38054 10.5866 5.19734 10.542 5.0506 10.4346L3.70099 9.44727C3.77938 10.7734 4.20472 12.0579 4.93732 13.167C5.75193 14.4001 6.90993 15.3611 8.26447 15.9287C9.61924 16.4963 11.1104 16.6448 12.5487 16.3555C13.9869 16.0661 15.3086 15.3525 16.3455 14.3037C17.3824 13.2548 18.0887 11.9177 18.3748 10.4629C18.6608 9.00823 18.514 7.50015 17.9529 6.12988C17.3918 4.75947 16.4408 3.58778 15.2215 2.76367C14.0023 1.93969 12.5687 1.50003 11.1024 1.5C10.9057 1.5 10.717 1.42089 10.5779 1.28027C10.4389 1.13963 10.3612 0.948875 10.3612 0.75C10.3612 0.551126 10.4389 0.360371 10.5779 0.219727C10.717 0.0791106 10.9057 0 11.1024 0ZM9.61896 6.00098C9.81549 6.00108 10.0044 6.0899 10.1434 6.24805C10.2823 6.40625 10.3602 6.62105 10.3602 6.84473V11.9072C10.3602 12.1309 10.2823 12.3457 10.1434 12.5039C10.0044 12.6621 9.81549 12.7509 9.61896 12.751C9.42236 12.751 9.23359 12.6621 9.09455 12.5039C8.9555 12.3457 8.87775 12.131 8.87775 11.9072V6.84473C8.87776 6.62097 8.95551 6.40627 9.09455 6.24805C9.23358 6.08991 9.42238 6.00098 9.61896 6.00098ZM12.5858 6.00098C12.7823 6.00105 12.9712 6.08988 13.1102 6.24805C13.2491 6.40626 13.327 6.62102 13.327 6.84473V11.9072C13.327 12.1309 13.2491 12.3457 13.1102 12.5039C12.9712 12.6621 12.7823 12.7509 12.5858 12.751C12.3891 12.751 12.2004 12.6621 12.0613 12.5039C11.9223 12.3457 11.8445 12.131 11.8445 11.9072V6.84473C11.8446 6.62097 11.9223 6.40627 12.0613 6.24805C12.2004 6.08989 12.3892 6.00098 12.5858 6.00098ZM3.70392 5.10254C3.8477 5.13149 3.98014 5.20277 4.08381 5.30762C4.18742 5.41245 4.2583 5.54603 4.28693 5.69141C4.31552 5.83682 4.301 5.98801 4.24494 6.125C4.18883 6.26201 4.0934 6.37951 3.9715 6.46191C3.84963 6.54425 3.70595 6.58787 3.55939 6.58789C3.36282 6.58785 3.17399 6.50875 3.03498 6.36816C2.89606 6.22753 2.81818 6.0367 2.81818 5.83789C2.8182 5.68959 2.86173 5.54421 2.94318 5.4209C3.02464 5.29775 3.14085 5.20221 3.27619 5.14551C3.41153 5.08887 3.56026 5.07368 3.70392 5.10254ZM5.47931 2.41992C5.62305 2.44889 5.75556 2.52017 5.8592 2.625C5.96269 2.7298 6.03273 2.86351 6.06135 3.00879C6.08995 3.15425 6.07546 3.30536 6.01935 3.44238C5.96324 3.57929 5.8687 3.69693 5.74689 3.7793C5.62505 3.86165 5.48132 3.90521 5.33478 3.90527C5.13818 3.90527 4.94941 3.82614 4.81037 3.68555C4.67133 3.5449 4.59358 3.35417 4.59357 3.15527C4.59357 3.00695 4.63613 2.86161 4.7176 2.73828C4.79906 2.61498 4.91516 2.51867 5.0506 2.46191C5.18606 2.40518 5.33552 2.39099 5.47931 2.41992ZM8.11701 0.645508C8.26079 0.674461 8.39322 0.745724 8.49689 0.850586C8.60052 0.955452 8.67142 1.08895 8.70002 1.23438C8.72862 1.37984 8.71413 1.53094 8.65803 1.66797C8.60195 1.80488 8.50637 1.92152 8.38459 2.00391C8.26269 2.0863 8.11908 2.13084 7.97248 2.13086C7.77593 2.13081 7.58707 2.05171 7.44806 1.91113C7.30912 1.77052 7.2313 1.57967 7.23127 1.38086C7.23127 1.23252 7.2748 1.0872 7.35627 0.963867C7.43773 0.840646 7.55388 0.744229 7.68928 0.6875C7.82455 0.630944 7.97343 0.616666 8.11701 0.645508Z" fill="#C4C4C4"/>
</svg>
