<svg width="18" height="12" viewBox="0 0 18 12" fill="none" xmlns="http://www.w3.org/2000/svg">
<path d="M1.6875 0.0177811C1.45405 -0.0176868 1.2121 0.000332542 0.992188 0.069539C0.77223 0.138822 0.583891 0.255944 0.452148 0.406453C0.320431 0.557083 0.25061 0.734487 0.251953 0.915242V11.0832C0.250567 11.264 0.320393 11.4413 0.452148 11.592C0.583906 11.7427 0.772061 11.8606 0.992188 11.9299C1.21205 11.9991 1.45411 12.0171 1.6875 11.9816C1.92119 11.9461 2.13587 11.8581 2.30371 11.7297L8.65137 6.90548V11.0832C8.64998 11.264 8.71986 11.4413 8.85156 11.592C8.98332 11.7427 9.17148 11.8606 9.3916 11.9299C9.61165 11.9992 9.8543 12.0172 10.0879 11.9816C10.3214 11.9461 10.5354 11.858 10.7031 11.7297L17.3994 6.64083C17.6227 6.47029 17.748 6.23961 17.748 5.99923C17.7479 5.75885 17.6228 5.52811 17.3994 5.35762L10.7031 0.268758C10.5354 0.140608 10.3213 0.053358 10.0879 0.0177811C9.85427 -0.0177746 9.61168 0.000251722 9.3916 0.069539C9.1716 0.138835 8.98331 0.255901 8.85156 0.406453C8.71984 0.557083 8.65002 0.734488 8.65137 0.915242V5.092L2.30371 0.268758C2.13591 0.140489 1.92106 0.0533279 1.6875 0.0177811Z" fill="#7B7B7B"/>
</svg>
