<svg width="18" height="12" viewBox="0 0 18 12" fill="none" xmlns="http://www.w3.org/2000/svg">
<path d="M16.3125 0.0177811C16.5459 -0.0176868 16.7879 0.000332542 17.0078 0.069539C17.2278 0.138822 17.4161 0.255944 17.5479 0.406453C17.6796 0.557083 17.7494 0.734487 17.748 0.915242V11.0832C17.7494 11.264 17.6796 11.4413 17.5479 11.592C17.4161 11.7427 17.2279 11.8606 17.0078 11.9299C16.7879 11.9991 16.5459 12.0171 16.3125 11.9816C16.0788 11.9461 15.8641 11.8581 15.6963 11.7297L9.34863 6.90548V11.0832C9.35002 11.264 9.28014 11.4413 9.14844 11.592C9.01668 11.7427 8.82852 11.8606 8.6084 11.9299C8.38835 11.9992 8.1457 12.0172 7.91211 11.9816C7.67859 11.9461 7.46462 11.858 7.29688 11.7297L0.600586 6.64083C0.377284 6.47029 0.251953 6.23961 0.251953 5.99923C0.25206 5.75885 0.377193 5.52811 0.600586 5.35762L7.29688 0.268758C7.46456 0.140608 7.67875 0.053358 7.91211 0.0177811C8.14573 -0.0177746 8.38832 0.000251722 8.6084 0.069539C8.8284 0.138835 9.01669 0.255901 9.14844 0.406453C9.28016 0.557083 9.34998 0.734488 9.34863 0.915242V5.092L15.6963 0.268758C15.8641 0.140489 16.0789 0.0533279 16.3125 0.0177811Z" fill="#C4C4C4"/>
</svg>
