<svg width="18" height="12" viewBox="0 0 18 12" fill="none" xmlns="http://www.w3.org/2000/svg">
<path d="M16.5225 0.017798C16.7629 -0.0177695 17.0128 0.000216474 17.2393 0.0695558C17.4654 0.138851 17.6585 0.256062 17.7939 0.40647C17.9294 0.557095 18.0014 0.734511 18 0.915259V11.0842C18.0014 11.265 17.9295 11.4423 17.7939 11.593C17.6585 11.7434 17.4654 11.8606 17.2393 11.9299C17.0128 11.9992 16.7629 12.0172 16.5225 11.9817C16.2821 11.9461 16.0613 11.859 15.8887 11.7307L9.3584 6.90647V11.0842C9.35982 11.265 9.2879 11.4423 9.15234 11.593C9.01688 11.7434 8.82381 11.8606 8.59766 11.9299C8.37119 11.9992 8.12128 12.0172 7.88086 11.9817C7.64057 11.9461 7.41966 11.859 7.24707 11.7307L0.358398 6.64182C0.128696 6.47136 0.00013559 6.24053 0 6.00022C0 5.75974 0.12851 5.5282 0.358398 5.35764L7.24707 0.268775C7.41967 0.140442 7.64056 0.0533951 7.88086 0.017798C8.12128 -0.0177695 8.37119 0.000216474 8.59766 0.0695558C8.82377 0.13884 9.01687 0.256066 9.15234 0.40647C9.28784 0.557095 9.35977 0.73451 9.3584 0.915259V5.09202L15.8887 0.268775C16.0613 0.140425 16.2821 0.0533857 16.5225 0.017798Z" fill="#7B7B7B"/>
</svg>
