<svg width="13" height="17" viewBox="0 0 13 17" fill="none" xmlns="http://www.w3.org/2000/svg">
<path d="M2.901e-05 15.7028V1.29717C-0.00195181 1.04101 0.0975475 0.790211 0.285841 0.576745C0.474134 0.363279 0.742689 0.196819 1.05727 0.0985889C1.37185 0.000358678 1.7182 -0.0251917 2.05217 0.0251954C2.38613 0.0755825 2.69258 0.199624 2.93243 0.381506L12.5013 7.59078C12.8207 7.83242 13 8.15929 13 8.5C13 8.84071 12.8207 9.16758 12.5013 9.40922L2.93243 16.6185C2.69258 16.8004 2.38613 16.9244 2.05217 16.9748C1.7182 17.0252 1.37185 16.9996 1.05727 16.9014C0.742689 16.8032 0.474134 16.6367 0.285841 16.4233C0.0975475 16.2098 -0.00195181 15.959 2.901e-05 15.7028Z" fill="white"/>
</svg>
